<?xml version="1.0" encoding="UTF-8"?>
<svg id="Capa_2" data-name="Capa 2" xmlns="http://www.w3.org/2000/svg" viewBox="0 0 98.79 112.05">
  <defs>
    <style>
      .cls-1 {
        fill: #0b216a;
      }

      .cls-2 {
        fill: #5b6aa3;
      }

      .cls-3 {
        fill: #0b206a;
      }

      .cls-4 {
        fill: #eeaf48;
      }
    </style>
  </defs>
  <g id="Capa_1-2" data-name="Capa 1">
    <g>
      <g>
        <path class="cls-3" d="m95.66,68.61c-2.97-6.68-15.6-30.99-24.24-19.99-3.48,5.09-6.81,11.01-10.53,16.04-10.42,13.63-26.58,22.51-41.67,29.69-3.69,1.77-14.24,5.71-16.36,6.23,20.94-15.5,49.33-37.91,50.92-63.63-12.86-5.45-23.12-10.34-7.73-25.18,2.39-2.08,2.2-4.65,4-1.4v.02c.1.16.2.32.29.48h.02c.48.79,1.33,2.17,1.27,2.08v.02s-.02,0-.02,0c-2.32,2.38-7.64,9.41-2.63,11,7.6,2.42,15.57,4.81,22.9,8.2,13.28,5.8,24.97,21.18,23.8,36.44Z"/>
        <path class="cls-2" d="m61.97,7.28c0,5.86-8.11,9.16-11.93,4.3v-.02C42.04-.04,61.97-5.33,61.97,7.28Z"/>
        <path class="cls-1" d="m80.23,23.42c-.54,5.54-7.37,8.86-11.55,5.11-.02.02-.02,0-.02,0-10.56-12.01,13.21-20.12,11.57-5.11Z"/>
        <path class="cls-2" d="m65.11,83.3c-.67,6.59-4.06,10.99-8.8,11.96-2.52.51-10.45,1.65-16.53-4.04l12.55-5.08c.8-.33,1.27-1.17,1.12-2.03l-1.28-7.05s.9-.9,2.16-2.18c.05-.06.12-.11.17-.17,1.82-1.85,4.33-4.4,6.04-6.18.05-.06.1-.11.15-.17.81-.85,1.4-1.53,1.61-1.79.46,1.42,3.48,10.09,2.81,16.71Z"/>
      </g>
      <g>
        <path class="cls-4" d="m19.32,84.4c-4.71-7.32-7.65-16.06-7.65-25.16,0-18.83,10.98-35.1,26.89-42.75,1.38-2.05,3.27-4.23,5.7-6.57l.05-.05.05-.04c.54-.47.9-.99,1.25-1.49.06-.09.13-.18.2-.28-.07-.38-.11-.75-.14-1.12C19.87,10.42,0,32.5,0,59.24c0,12.05,4.05,23.16,10.85,32.04,2.9-2.27,5.73-4.56,8.47-6.88Z"/>
        <path class="cls-4" d="m62.95,11.99c2.65.21,5.23.64,7.74,1.27,1.12-.36,2.29-.58,3.48-.58,2.6,0,4.89.96,6.46,2.71.51.57,1.04,1.36,1.46,2.37,6.75,3.76,12.49,9.11,16.69,15.56-7.2-12.79-19.57-22.24-34.29-25.57-.17,1.54-.72,2.98-1.55,4.23Z"/>
        <path class="cls-4" d="m82.29,70.34c-6.22-1.21-15.09-2.11-15.09-2.11,23.12,9.54,13.64,23.79,8.21,27.41-4.83,3.22-10.5,6.76-24.87,6.64-8.11-.07-17.06-2.51-23.7-8.79-2.19,1.11-4.36,2.17-6.5,3.19-.81.39-1.95.88-3.25,1.42,2.88,2.65,6.03,5,9.45,6.96-.05.04-.1.08-.15.1,8.04,4.79,17.26,7.02,26.38,6.89.03.01.04.01.05,0,14.14-.19,28.05-6.01,37-16.66,4.33-5.15,7.57-10.67,8.82-16.38.16-.97-.14-3.17-2.78-4.49s-5.9-2.68-13.57-4.17Z"/>
      </g>
    </g>
  </g>
</svg>