<svg width="154" height="30" viewBox="0 0 154 30" fill="none" xmlns="http://www.w3.org/2000/svg">
<path d="M51.6429 13.677C51.6429 17.9427 48.4059 21.2076 44.5138 21.2076C42.2805 21.2076 40.5909 20.2903 39.5036 18.8015V26.5607H36.4088V6.51437H39.5008V8.57755C40.5882 7.06083 42.2777 6.14355 44.511 6.14355C48.4059 6.14634 51.6429 9.43907 51.6429 13.677ZM48.5509 13.677C48.5509 11.0143 46.6048 9.09614 44.0259 9.09614C41.4469 9.09614 39.5008 11.0143 39.5008 13.677C39.5008 16.3396 41.4469 18.2578 44.0259 18.2578C46.6048 18.2578 48.5509 16.3396 48.5509 13.677Z" fill="black"/>
<path d="M61.4626 18.3721C63.18 18.3721 64.4681 17.5998 65.1568 16.5961L67.7051 18.0849C66.3891 20.031 64.2395 21.2048 61.4347 21.2048C56.7089 21.2048 53.6448 17.9678 53.6448 13.6742C53.6448 9.43628 56.7089 6.14355 61.2033 6.14355C65.469 6.14355 68.3909 9.57847 68.3909 13.702C68.3909 14.1314 68.3324 14.5887 68.2766 14.9901H56.8817C57.3697 17.2262 59.1735 18.3721 61.4626 18.3721ZM65.2711 12.4725C64.8417 10.0106 63.0378 8.95115 61.1754 8.95115C58.8557 8.95115 57.2804 10.3257 56.8511 12.4725H65.2711Z" fill="black"/>
<path d="M78.0433 18.3721C79.7607 18.3721 81.0488 17.5998 81.7375 16.5961L84.2858 18.0849C82.9698 20.031 80.8202 21.2048 78.0154 21.2048C73.2896 21.2048 70.2255 17.9678 70.2255 13.6742C70.2255 9.43628 73.2896 6.14355 77.784 6.14355C82.0497 6.14355 84.9716 9.57847 84.9716 13.702C84.9716 14.1314 84.9131 14.5887 84.8573 14.9901H73.4596C73.9476 17.2262 75.7514 18.3721 78.0433 18.3721ZM81.8518 12.4725C81.4224 10.0106 79.6185 8.95115 77.7561 8.95115C75.4364 8.95115 73.8611 10.3257 73.4318 12.4725H81.8518Z" fill="black"/>
<path d="M95.1928 6.26074V9.61202C93.1603 9.46983 90.7821 10.415 90.7821 13.6213V20.8368H87.6901V6.51725H90.7821V8.92336C91.6436 6.97728 93.3889 6.26074 95.1928 6.26074Z" fill="black"/>
<path d="M111.258 0.790527V20.8368H108.166V18.7737C107.078 20.2904 105.389 21.2077 103.155 21.2077C99.2605 21.2077 96.0264 17.9149 96.0264 13.677C96.0264 9.41128 99.2633 6.14644 103.155 6.14644C105.389 6.14644 107.078 7.06372 108.166 8.55255V0.790527H111.258ZM108.166 13.677C108.166 11.0144 106.22 9.09623 103.641 9.09623C101.064 9.09623 99.1156 11.0144 99.1156 13.677C99.1156 16.3397 101.062 18.2579 103.641 18.2579C106.217 18.2579 108.166 16.3397 108.166 13.677Z" fill="black"/>
<path d="M114.062 13.6771C114.062 9.41133 117.442 6.14648 121.621 6.14648C125.831 6.14648 129.179 9.41133 129.179 13.6771C129.179 17.915 125.828 21.2077 121.621 21.2077C117.442 21.2077 114.062 17.915 114.062 13.6771ZM126.09 13.6771C126.09 11.0702 124.144 9.15204 121.624 9.15204C119.103 9.15204 117.157 11.0702 117.157 13.6771C117.157 16.284 119.103 18.2022 121.624 18.2022C124.141 18.2022 126.09 16.2812 126.09 13.6771Z" fill="black"/>
<path d="M153.034 11.9595V20.8368H149.942V12.1575C149.942 10.1528 148.855 9.0348 147.165 9.0348C145.334 9.0348 144.043 10.2086 144.043 12.8154V20.8368H140.951V12.1575C140.951 10.1528 139.95 9.0348 138.257 9.0348C136.512 9.0348 135.079 10.2086 135.079 12.8154V20.8368H131.987V6.51716H135.079V8.23462C135.996 6.83221 137.399 6.14355 139.175 6.14355C141.037 6.14355 142.412 6.9744 143.24 8.40469C144.185 6.91585 145.702 6.14355 147.62 6.14355C150.857 6.14634 153.034 8.3796 153.034 11.9595Z" fill="black"/>
<mask id="mask0_944_2443" style="mask-type:alpha" maskUnits="userSpaceOnUse" x="0" y="1" width="30" height="29">
<path d="M18.0265 6.19327C17.0453 6.31194 15.991 6.11797 15.1694 5.70264C10.724 8.02347 6.47943 12.5488 4.63098 16.8892C4.80442 17.3433 4.91852 17.8933 4.92993 18.5094C8.89611 21.4556 15.0804 23.1192 20.2333 22.8727C20.6007 21.896 21.3446 20.9832 22.2711 20.5564C22.3875 15.8828 20.8403 10.237 18.0265 6.19327Z" fill="#1D1D1D"/>
<path d="M21.1254 26.0219C20.5891 25.8599 20.2377 25.44 20.0802 24.8946C14.8384 25.5244 8.60158 23.8152 4.52814 20.3784C4.3296 20.7253 4.03294 21.0128 3.63358 21.006C3.57881 22.3775 3.92796 23.7855 4.81568 24.9562C8.26384 28.5801 13.3345 30.1045 18.2249 28.9612C19.5896 28.3815 20.5389 27.2679 21.1254 26.0219Z" fill="#1D1D1D"/>
<path d="M16.0611 2.54859C17.0629 2.46644 18.1012 2.69464 18.8749 3.12367C20.8465 2.95708 22.3116 3.32905 23.375 3.92923C20.1094 1.51255 15.9812 0.631679 11.9945 1.50342C13.1447 1.36193 14.8311 1.80921 16.0611 2.54859Z" fill="#1D1D1D"/>
<path d="M19.9225 4.10028C20.21 4.65025 20.0891 5.23673 19.4957 5.67032C22.6358 9.66388 24.2834 15.4534 23.8453 20.4488C24.4729 20.7135 24.7764 21.3251 24.8311 22.0074C26.5427 21.3662 27.8731 20.4283 28.6513 18.7578C29.8585 14.0431 28.5782 8.85604 24.8859 5.22304C23.4528 4.12538 21.723 3.87207 19.9225 4.10028Z" fill="#1D1D1D"/>
<path d="M26.2772 22.6375C25.7341 23.046 25.1499 23.386 24.5406 23.6735C24.0317 24.9058 23.0733 25.7411 22.1924 26.0012C21.5215 27.1308 20.5881 28.1167 19.3923 28.637C23.2056 27.3887 26.3001 24.559 27.8998 20.9214C27.8496 20.9853 27.4183 21.7703 26.2772 22.6375Z" fill="#1D1D1D"/>
<path d="M2.51568 16.138C2.76214 15.7615 3.12498 15.5105 3.55857 15.6337C5.19251 11.3344 9.15184 6.82505 13.9464 4.53616C13.652 3.81276 14.081 3.20802 14.7999 2.86571C13.668 2.09438 12.2965 1.61516 10.8383 1.80456C6.06653 3.28561 2.38332 7.23582 1.27881 12.1605C1.17156 13.6369 1.63937 14.9445 2.51568 16.138Z" fill="#1D1D1D"/>
<path d="M2.69763 20.3852C2.26405 19.7576 1.97651 18.6987 2.07235 17.5942C1.49272 16.6654 1.05913 15.6317 0.949592 14.5386C0.798977 17.5486 1.59541 20.5723 3.36627 23.1738C2.95322 22.3363 2.73871 21.3459 2.69763 20.3852Z" fill="#1D1D1D"/>
</mask>
<g mask="url(#mask0_944_2443)">
<circle cx="15.0069" cy="15.5042" r="15.0589" fill="url(#paint0_radial_944_2443)"/>
</g>
<defs>
<radialGradient id="paint0_radial_944_2443" cx="0" cy="0" r="1" gradientUnits="userSpaceOnUse" gradientTransform="translate(10.1509 11.5842) rotate(58.4646) scale(22.2674)">
<stop stop-color="#A4FF95"/>
<stop offset="0.25" stop-color="#60FF4D"/>
<stop offset="0.738333" stop-color="#00A8A3"/>
<stop offset="0.908333" stop-color="#00D1C6"/>
</radialGradient>
</defs>
</svg>
