<?xml version="1.0" encoding="UTF-8" standalone="no"?>
<!DOCTYPE svg PUBLIC "-//W3C//DTD SVG 1.1//EN" "http://www.w3.org/Graphics/SVG/1.1/DTD/svg11.dtd">
<svg width="100%" height="100%" viewBox="0 0 1200 465" version="1.1" xmlns="http://www.w3.org/2000/svg" xmlns:xlink="http://www.w3.org/1999/xlink" xml:space="preserve" xmlns:serif="http://www.serif.com/" style="fill-rule:evenodd;clip-rule:evenodd;stroke-linejoin:round;stroke-miterlimit:2;">
    <g id="Capa-1" serif:id="Capa 1">
        <g>
            <path d="M598.989,171.88C597.698,174.784 595.96,176.909 593.831,178.459C591.702,179.942 589.185,180.713 586.414,180.713L560.423,180.713L560.423,143.438L585.381,143.438C588.156,143.438 590.544,144.021 592.927,145.567C595.185,147.051 597.119,149.113 598.602,151.888C600.152,154.659 600.731,158.013 600.731,162.076C600.731,165.755 600.152,168.976 598.989,171.88M620.66,148.084C618.919,143.567 616.402,139.376 613.114,135.701C609.952,132.088 606.019,129.188 601.506,127.059C597.119,124.738 592.219,123.771 586.864,123.771L537.981,123.771L537.981,238.951L560.423,238.951L560.423,200.384L587.769,200.384C594.989,200.384 601.248,198.513 606.535,194.838C611.952,191.163 616.144,186.388 619.048,180.459C621.948,174.526 623.431,168.463 623.431,162.076C623.431,157.305 622.398,152.596 620.66,148.084" style="fill:rgb(143,28,98);fill-rule:nonzero;"/>
            <path d="M686.052,152.855C685.406,152.855 684.569,152.855 683.406,152.726C678.248,153.113 673.348,154.984 668.573,158.271C663.869,161.688 659.998,166.205 656.969,172.138L656.969,154.788L637.039,154.788L637.039,238.951L658.577,238.951L658.577,187.421C660.964,182.584 664.769,178.976 669.931,176.588C675.089,174.138 681.152,172.913 687.856,172.784L687.856,153.113C687.344,152.855 686.698,152.855 686.052,152.855" style="fill:rgb(143,28,98);fill-rule:nonzero;"/>
            <path d="M758.411,209.929C756.349,213.734 753.574,216.638 750.349,218.892C746.932,221.021 743.257,222.054 739.128,222.054C734.936,222.054 731.194,221.021 727.778,218.892C724.361,216.767 721.715,213.863 719.844,209.929C717.844,206.188 716.815,201.867 716.815,197.096C716.815,192.196 717.844,187.875 719.844,184.134C721.715,180.329 724.361,177.425 727.778,175.167C731.065,173.042 734.807,171.879 738.999,171.879C743.128,171.879 746.932,173.042 750.349,175.167C753.574,177.425 756.349,180.329 758.411,184.134C760.282,187.875 761.311,192.196 761.311,196.967C761.311,201.867 760.282,206.188 758.411,209.929M780.724,180.2C778.532,175.042 775.628,170.396 771.761,166.334C767.828,162.334 763.182,159.175 757.636,156.917C752.219,154.663 745.899,153.5 738.999,153.5C732.161,153.5 726.036,154.663 720.49,156.917C714.944,159.175 710.236,162.334 706.365,166.334C702.561,170.396 699.661,175.042 697.661,180.2C695.661,185.488 694.628,191.034 694.628,197.096C694.628,202.9 695.661,208.317 697.661,213.604C699.661,218.763 702.561,223.409 706.494,227.471C710.365,231.471 715.074,234.759 720.49,237.017C726.036,239.467 732.161,240.563 739.128,240.563C746.028,240.563 752.219,239.467 757.636,237.017C763.182,234.759 767.828,231.471 771.761,227.471C775.628,223.409 778.532,218.763 780.724,213.604C782.724,208.317 783.69,202.9 783.69,197.096C783.69,191.034 782.724,185.488 780.724,180.2" style="fill:rgb(143,28,98);fill-rule:nonzero;"/>
            <rect x="797.554" y="184.649" width="49.271" height="19.604" style="fill:rgb(143,28,98);"/>
            <path d="M966.678,179.756L966.678,238.969L948.178,238.969L948.178,225.956C938.886,235.161 928.178,239.765 916.053,239.765C908.44,239.765 901.361,238.348 894.811,235.34C888.174,232.331 882.332,228.169 877.286,222.773C872.328,217.373 868.349,211.09 865.515,204.006C862.769,196.927 861.353,189.14 861.353,180.731C861.353,172.852 862.769,165.331 865.603,158.427C868.524,151.436 872.419,145.24 877.461,139.927C882.507,134.531 888.436,130.369 895.253,127.361C902.069,124.44 909.415,122.936 917.29,122.936C928.265,122.936 937.561,125.236 945.349,129.752C953.049,134.265 958.89,140.369 962.782,148.073L946.057,160.461C943.224,154.711 939.153,150.286 933.84,147.273C928.619,144.265 922.865,142.761 916.669,142.761C911.803,142.761 907.378,143.736 903.307,145.769C899.236,147.894 895.694,150.727 892.774,154.265C889.853,157.806 887.64,161.965 886.136,166.569C884.632,171.261 883.924,176.127 883.924,181.348C883.924,186.836 884.719,191.969 886.403,196.573C888.082,201.265 890.474,205.336 893.569,208.877C896.669,212.415 900.207,215.161 904.369,217.106C908.44,219.052 912.953,220.027 917.999,220.027C923.928,220.027 929.594,218.436 934.815,215.423C939.507,212.769 944.107,208.965 948.178,204.006L948.178,196.131L924.99,196.131L924.99,179.756L966.678,179.756Z" style="fill:rgb(143,28,98);fill-rule:nonzero;"/>
            <path d="M1035.011,211.09C1035.011,212.124 1034.623,213.219 1033.848,214.636C1033.077,215.99 1032.111,217.153 1030.948,218.249C1028.948,220.182 1026.436,221.665 1023.273,222.957C1020.244,224.182 1016.952,224.828 1013.665,224.828C1010.569,224.828 1007.794,224.311 1005.473,223.215C1003.348,221.924 1001.606,220.44 1000.444,218.378C999.219,216.507 998.702,214.507 998.702,212.315C998.702,208.444 1000.444,205.286 1004.119,202.899C1007.794,200.515 1012.311,199.353 1017.986,199.353C1020.627,199.353 1023.531,199.611 1026.561,200.257C1029.594,200.903 1032.498,201.611 1035.011,202.64L1035.011,211.09ZM1057.906,219.54C1057.131,218.507 1056.806,217.024 1056.806,214.765L1056.806,188.003C1056.806,176.782 1053.39,168.269 1046.556,162.336C1039.911,156.403 1030.431,153.499 1018.244,153.499C1011.794,153.499 1005.602,154.403 999.736,156.144C993.802,157.886 988.127,160.657 982.581,164.465L989.352,178.586C994.061,175.557 998.444,173.299 1002.702,171.624C1006.894,170.011 1011.406,169.236 1016.181,169.236C1022.498,169.236 1027.144,170.653 1030.302,173.557C1033.465,176.328 1035.011,180.328 1035.011,185.615L1035.011,190.324C1032.369,189.161 1029.077,188.261 1025.402,187.615C1021.723,187.165 1018.115,186.907 1014.569,186.907C1007.277,186.907 1000.961,188.003 995.415,190.324C989.998,192.582 985.74,195.869 982.711,199.869C979.548,203.932 978.002,208.703 978.002,214.119C978.002,219.024 979.29,223.536 981.806,227.599C984.323,231.469 987.869,234.757 992.381,237.015C996.961,239.465 1001.99,240.561 1007.536,240.561C1013.34,240.561 1018.952,239.336 1024.369,236.694C1029.915,234.115 1034.623,230.503 1038.365,225.728L1038.881,230.115C1039.394,232.89 1040.686,235.274 1042.944,237.144C1045.073,239.078 1048.361,239.919 1052.744,239.919C1053.777,240.044 1055.131,240.044 1056.681,239.79C1058.294,239.594 1060.031,239.336 1061.969,238.949L1061.969,221.278C1060.031,221.024 1058.806,220.507 1057.906,219.54" style="fill:rgb(143,28,98);fill-rule:nonzero;"/>
            <path d="M1063.192,140.795L1081.121,140.795L1081.121,121.512L1063.192,121.512L1063.192,140.795ZM1077.059,238.949L1098.6,238.949L1098.6,154.791L1077.059,154.791L1077.059,238.949ZM1094.471,140.795L1112.592,140.795L1112.592,121.512L1094.471,121.512L1094.471,140.795Z" style="fill:rgb(143,28,98);fill-rule:nonzero;"/>
            <path d="M1169.539,211.09C1169.539,212.124 1169.218,213.219 1168.443,214.636C1167.668,215.99 1166.635,217.153 1165.539,218.249C1163.539,220.182 1161.026,221.665 1157.864,222.957C1154.706,224.182 1151.547,224.828 1148.256,224.828C1144.968,224.828 1142.322,224.311 1140.068,223.215C1137.939,221.924 1136.197,220.44 1135.035,218.378C1133.747,216.507 1133.164,214.507 1133.164,212.315C1133.164,208.444 1135.035,205.286 1138.714,202.899C1142.193,200.515 1146.901,199.353 1152.576,199.353C1155.222,199.353 1158.122,199.611 1161.089,200.257C1164.122,200.903 1166.893,201.611 1169.539,202.64L1169.539,211.09ZM1192.497,219.54C1191.722,218.507 1191.335,217.024 1191.335,214.765L1191.335,188.003C1191.335,176.782 1187.981,168.269 1181.147,162.336C1174.376,156.403 1164.893,153.499 1152.835,153.499C1146.385,153.499 1140.197,154.403 1134.264,156.144C1128.326,157.886 1122.718,160.657 1117.172,164.465L1123.943,178.586C1128.585,175.557 1133.035,173.299 1137.293,171.624C1141.485,170.011 1145.997,169.236 1150.772,169.236C1156.964,169.236 1161.735,170.653 1164.893,173.557C1168.056,176.328 1169.539,180.328 1169.539,185.615L1169.539,190.324C1166.893,189.161 1163.668,188.261 1159.993,187.615C1156.318,187.165 1152.706,186.907 1149.16,186.907C1141.872,186.907 1135.551,188.003 1130.006,190.324C1124.589,192.582 1120.268,195.869 1117.301,199.869C1114.139,203.932 1112.593,208.703 1112.593,214.119C1112.593,219.024 1113.881,223.536 1116.397,227.599C1118.914,231.469 1122.46,234.757 1126.976,237.015C1131.36,239.465 1136.518,240.561 1142.064,240.561C1147.868,240.561 1153.418,239.336 1158.96,236.694C1164.51,234.115 1169.218,230.503 1172.956,225.728L1173.472,230.115C1173.86,232.89 1175.214,235.274 1177.406,237.144C1179.664,239.078 1182.951,239.919 1187.21,239.919C1188.368,240.044 1189.722,240.044 1191.206,239.79C1192.756,239.594 1194.497,239.336 1196.56,238.949L1196.56,221.278C1194.626,221.024 1193.401,220.507 1192.497,219.54" style="fill:rgb(143,28,98);fill-rule:nonzero;"/>
            <path d="M686.503,285.319L674.315,342.781L679.924,342.781L692.178,285.319L686.503,285.319Z" style="fill:rgb(194,64,146);fill-rule:nonzero;"/>
            <path d="M740.159,304.731C739.58,303.181 738.676,302.085 737.259,301.314C736.03,300.41 734.289,300.023 731.968,300.023C729.714,300.023 727.326,300.539 724.939,301.314C722.555,302.214 720.426,303.439 718.234,304.989C716.234,306.473 714.493,308.214 712.943,310.277L715.009,300.669L709.914,300.669L701.014,342.781L706.559,342.781L711.976,317.048C713.072,314.789 714.622,312.664 716.493,310.856C718.359,309.114 720.555,307.76 722.684,306.602C724.809,305.569 726.939,305.119 729.001,305.119C731.001,305.119 732.614,305.698 733.647,306.86C734.743,308.085 735.259,310.019 735.259,312.535C735.259,313.435 735.13,314.535 735.001,315.694C734.872,316.789 734.614,317.952 734.418,319.306L729.455,342.781L734.872,342.781L740.03,318.21C740.418,316.66 740.676,315.306 740.805,313.889C741.064,312.535 741.189,311.244 741.189,310.019C741.189,307.956 740.805,306.214 740.159,304.731" style="fill:rgb(194,64,146);fill-rule:nonzero;"/>
            <path d="M787.689,300.668C786.785,303.697 785.818,306.73 784.531,309.889C783.301,312.922 781.756,316.08 780.272,319.176C778.597,322.339 776.726,325.368 774.856,328.526C772.793,331.559 770.664,334.589 768.276,337.622L763.118,300.668L757.443,300.668L764.151,342.78L770.018,342.78C775.564,335.814 780.272,328.784 784.143,321.693C787.947,314.664 790.976,307.764 792.976,300.668L787.689,300.668Z" style="fill:rgb(194,64,146);fill-rule:nonzero;"/>
            <path d="M808.841,317.822C809.746,315.306 810.971,313.051 812.775,310.985C814.387,308.989 816.454,307.376 818.708,306.214C820.966,304.989 823.479,304.343 826.254,304.343C827.996,304.343 829.546,304.601 830.9,305.118C832.316,305.568 833.412,306.343 834.316,307.376C835.221,308.343 835.608,309.76 835.608,311.372C835.671,313.181 835.221,314.664 834.058,315.951C832.896,317.176 831.154,318.21 828.641,318.856C826.125,319.435 822.708,319.822 818.45,319.822C816.775,319.822 815.162,319.822 813.291,319.693C811.875,319.564 810.262,319.564 808.454,319.435C808.454,318.918 808.583,318.339 808.841,317.822M812.646,323.626C814.646,323.756 816.516,323.756 818.191,323.756C825.866,323.756 831.412,322.722 835.221,320.726C838.829,318.726 840.766,315.693 840.637,311.372C840.637,308.86 839.991,306.86 838.829,305.118C837.604,303.443 835.929,302.214 833.8,301.314C831.671,300.539 829.416,300.022 826.771,300.022C823.096,300.022 819.804,300.797 816.775,302.214C813.741,303.568 811.229,305.568 808.971,307.956C806.716,310.406 804.975,313.181 803.812,316.21C802.587,319.176 801.941,322.464 801.941,325.756C802.071,329.043 802.716,332.076 803.941,334.718C805.358,337.493 807.1,339.622 809.616,341.101C812.004,342.781 814.904,343.489 818.45,343.489C821.096,343.489 823.608,343.039 826.125,342.135C828.512,341.231 830.641,340.006 832.704,338.331C834.704,336.847 836.316,334.976 837.604,332.785L833.025,331.431C831.671,333.943 829.671,335.814 827.287,337.235C824.708,338.589 822.191,339.364 819.291,339.364C816.775,339.364 814.646,338.718 812.904,337.493C811.1,336.201 809.746,334.46 808.841,332.46C808.133,330.268 807.616,328.014 807.616,325.497C807.616,324.722 807.616,324.143 807.746,323.368C809.487,323.497 811.1,323.626 812.646,323.626" style="fill:rgb(194,64,146);fill-rule:nonzero;"/>
            <path d="M867.851,305.311C869.722,304.732 871.718,304.344 873.785,304.344C876.172,304.344 878.168,304.732 879.91,305.44C881.718,306.215 883.201,307.503 884.36,308.986L887.714,305.828C886.489,304.215 884.747,302.794 882.426,301.699C880.168,300.669 877.397,300.024 874.235,300.024C871.01,300.024 867.981,300.669 865.206,301.828C862.564,303.053 860.372,304.732 858.76,306.857C857.272,308.857 856.372,311.374 856.372,314.403C856.372,316.274 856.889,317.694 857.597,318.853C858.501,319.819 859.789,320.724 861.531,321.369C863.143,321.949 865.335,322.724 867.851,323.499C871.206,324.336 873.785,325.24 875.526,326.14C877.268,326.915 878.168,328.399 878.168,330.399C878.168,332.203 877.656,333.686 876.556,334.978C875.526,336.332 874.106,337.365 872.235,338.074C870.493,338.715 868.368,339.103 865.789,339.103C863.272,339.103 861.014,338.715 858.885,337.749C856.631,336.849 854.76,335.428 852.826,333.428L849.535,337.232C851.343,339.232 853.597,340.844 856.372,341.878C859.014,343.04 862.047,343.49 865.464,343.49C869.076,343.49 872.235,342.911 875.01,341.749C877.781,340.653 879.91,338.974 881.46,336.849C882.943,334.719 883.714,332.332 883.714,329.69C883.714,327.494 883.201,325.882 882.168,324.724C881.201,323.499 879.651,322.465 877.656,321.628C875.656,320.724 873.139,319.949 870.364,319.178C867.335,318.34 865.076,317.565 863.789,316.79C862.435,316.211 861.789,314.919 861.789,313.178C861.789,311.115 862.435,309.503 863.401,308.215C864.564,306.986 866.047,305.957 867.851,305.311" style="fill:rgb(194,64,146);fill-rule:nonzero;"/>
            <path d="M907.384,332.655L913.188,305.117L922.279,305.117L923.25,300.667L914.092,300.667L917.121,286.413L911.704,286.413L908.546,300.667L903.129,300.667L902.096,305.117L907.642,305.117L901.259,335.301C901.259,335.688 901.259,336.071 901.129,336.459L901.129,337.492C901.129,339.492 901.709,340.976 903.129,342.005C904.354,343.038 906.159,343.488 908.029,343.488C909.513,343.488 910.929,343.426 912.154,343.167C913.446,342.909 914.609,342.521 915.575,342.005C916.604,341.617 917.379,341.234 917.704,340.976L917.379,336.588C917.121,336.717 916.604,336.976 915.963,337.234C915.317,337.492 914.609,337.751 913.704,338.009C912.8,338.201 911.834,338.459 910.8,338.459C909.771,338.459 908.8,338.071 908.029,337.621C907.254,336.976 906.867,336.071 906.867,334.976C906.867,334.717 906.996,334.33 906.996,334.076C906.996,333.688 907.125,333.171 907.384,332.655" style="fill:rgb(194,64,146);fill-rule:nonzero;"/>
            <path d="M980.581,291.51C983.031,290.476 986.064,289.835 989.544,289.835C991.223,289.835 992.706,290.093 994.123,290.347C995.606,290.735 996.898,291.122 997.994,291.576C999.152,292.218 1000.123,292.864 1001.152,293.639C1002.056,294.285 1002.764,295.122 1003.281,296.022L1006.956,291.51C1005.669,290.093 1004.314,288.931 1002.635,287.964C1001.152,286.931 999.281,286.156 997.219,285.706C995.348,285.189 993.094,284.931 990.706,284.931C987.419,284.931 984.256,285.318 981.485,286.156C978.71,287.06 976.323,288.351 974.198,290.093C972.069,291.701 970.389,293.768 969.294,296.151C968.006,298.41 967.489,301.185 967.489,304.085C967.489,306.472 968.006,308.472 969.164,310.018C970.26,311.372 971.939,312.664 974.069,313.501C976.194,314.535 978.839,315.435 981.998,316.272C985.031,317.047 987.548,317.822 989.673,318.597C991.802,319.435 993.352,320.468 994.448,321.626C995.606,322.851 996.123,324.335 996.123,326.526C996.123,328.914 995.477,330.914 994.123,332.656C992.835,334.46 991.094,335.814 988.706,336.718C986.256,337.622 983.481,338.072 980.26,338.072C978.064,338.072 976.069,337.881 974.327,337.493C972.389,336.976 970.777,336.46 969.294,335.685C967.748,334.976 966.523,334.072 965.36,333.043C964.202,332.201 963.231,331.172 962.46,330.139L958.719,334.847C961.364,337.622 964.202,339.618 967.619,340.976C971.035,342.393 974.839,343.168 979.098,343.168C982.256,343.168 985.289,342.781 988.189,342.006C990.964,341.231 993.481,340.135 995.477,338.589C997.606,337.235 999.281,335.235 1000.51,332.914C1001.669,330.656 1002.314,327.881 1002.314,324.722C1002.314,322.081 1001.669,319.951 1000.381,318.339C999.281,316.66 997.348,315.306 995.089,314.276C992.706,313.31 989.931,312.406 986.514,311.501C983.61,310.726 981.227,310.018 979.356,309.372C977.356,308.601 975.939,307.76 975.098,306.731C974.069,305.568 973.552,304.214 973.552,302.472C973.552,300.022 974.198,297.893 975.294,296.022C976.452,294.156 978.194,292.606 980.581,291.51" style="fill:rgb(194,64,146);fill-rule:nonzero;"/>
            <path d="M1029.4,320.337L1046.167,291.833L1050.684,320.337L1029.4,320.337ZM1049.909,285.321L1045.009,285.321L1010.246,342.779L1016.246,342.779L1026.754,324.721L1051.325,324.721L1054.229,342.779L1060.225,342.779L1049.909,285.321Z" style="fill:rgb(194,64,146);fill-rule:nonzero;"/>
            <path d="M348.152,78.596C348.152,79.363 348.015,80.267 347.594,81.034C347.456,81.521 347.248,81.867 347.04,82.076L346.065,83.33L346.065,86.113L345.298,182.588L345.227,189.621L339.311,189.621L339.311,84.026L337.99,82.705C336.944,81.521 336.39,80.059 336.39,78.596C336.39,75.326 339.031,72.68 342.306,72.68C345.577,72.68 348.152,75.326 348.152,78.596" style="fill:rgb(101,134,110);fill-rule:nonzero;"/>
            <path d="M427.573,104.491C422.144,105.186 418.456,102.332 413.998,100.87C375.227,46.786 311.819,11.566 240.402,11.566C122.486,11.566 26.569,107.553 26.569,225.536C26.569,269.945 40.419,312.753 65.477,348.395C66.244,349.578 67.148,350.761 68.194,351.945C73.694,359.599 81.836,368.72 90.256,377.07L90.256,390.295C44.177,348.253 17.381,288.599 17.381,225.536C17.381,102.474 117.406,2.445 240.402,2.445C318.777,2.445 387.827,43.166 427.573,104.491" style="fill:rgb(170,206,145);fill-rule:nonzero;"/>
            <path d="M463.422,225.537C463.422,288.671 436.551,348.325 390.543,390.296L390.543,377.629C398.689,369.691 406.134,361.062 412.747,351.941C413.722,350.758 414.559,349.646 415.251,348.462C440.38,312.896 454.234,270.087 454.234,225.537C454.234,209.179 452.422,193.171 448.734,177.787C452.422,177.925 454.372,177.091 457.364,174.029C461.264,190.525 463.422,207.787 463.422,225.537" style="fill:rgb(170,206,145);fill-rule:nonzero;"/>
            <path d="M294.346,182.589C294.555,181.894 294.626,181.198 294.626,180.502L293.996,178.414C291.076,175.144 286.201,175.281 282.305,173.539C277.78,169.644 277.013,162.889 271.238,160.314C265.738,158.506 260.101,158.089 254.392,157.394L240.401,146.881L228.846,155.581C226.617,156.069 224.392,157.044 222.163,158.298C214.855,162.681 205.53,168.806 196.617,168.806C195.505,168.806 194.321,168.739 193.209,168.531L192.301,168.181L189.796,165.952C188.821,163.864 188.476,161.569 188.542,159.202C188.542,158.923 188.542,158.577 188.613,158.298C189.938,150.152 198.776,146.394 204.205,141.106C208.73,135.885 212.071,129.689 214.784,123.285C221.401,103.585 242.142,96.348 261.421,96.348C262.534,96.348 263.717,96.348 264.905,96.485C280.842,95.302 297.271,98.573 313.001,94.744C320.171,93.006 327.271,90.71 334.58,89.527L334.58,182.589L294.346,182.589Z" style="fill:rgb(170,206,145);fill-rule:nonzero;"/>
            <path d="M434.743,246.21C434.605,248.856 433.768,251.431 432.376,253.727C430.914,254.631 429.314,254.981 427.643,254.631C422.493,252.127 419.289,246.627 417.551,241.339C416.089,236.814 415.184,232.01 414.001,227.206L414.001,182.589L350.868,182.589L351.98,168.319L357.826,166.719C371.401,162.889 385.53,167.623 400.634,172.564C409.268,175.419 418.109,178.344 427.084,179.598C427.434,183.148 427.851,186.764 427.851,190.385L427.851,190.594C427.851,198.389 423.051,204.306 424.93,212.244C426.601,221.569 424.372,232.848 428.547,241.406C431.401,242.381 433.701,243.981 434.743,246.21" style="fill:rgb(170,206,145);fill-rule:nonzero;"/>
            <path d="M195.296,76.37C195.367,76.857 195.367,77.345 195.225,77.832C192.163,84.653 183.742,89.595 177.617,93.424C168.775,101.149 156.734,103.236 147.684,110.545C145.667,113.332 143.854,116.324 140.934,118.203C139.888,118.62 138.984,118.828 138.15,118.828C133.971,118.828 132.163,113.886 132.442,109.503C132.929,105.395 134.25,101.499 134.25,97.461L134.25,96.349L133.346,94.607L131.884,93.841C131.675,93.77 131.534,93.703 131.325,93.703C130.563,93.841 129.725,93.982 128.959,94.12C122.071,97.67 116.363,104.561 112.463,111.103C111.35,112.845 110.863,114.445 110.863,115.907C110.863,122.657 120.4,127.182 120.888,134.632C120.888,135.12 120.954,135.536 120.954,135.953C120.954,149.528 106.338,149.249 96.734,153.911C94.575,155.166 92.696,156.695 90.954,158.366L85.734,158.366L85.734,164.282C84.413,166.024 83.088,167.832 81.838,169.574C78.567,173.891 74.804,177.857 72.163,182.591L66.8,182.591L66.8,199.711L65.546,200.199L65.2,200.061C61.929,196.649 60.884,191.986 58.796,187.878L58.659,187.811L57.404,186.974L57.125,186.974L55.525,187.391C52.325,190.874 51.696,196.161 52.671,200.686L53.088,201.591L53.575,202.149C54.621,202.357 55.525,202.916 56.013,203.749C57.267,207.72 56.571,211.824 57.334,215.861C58.171,217.116 59.213,218.157 60.396,218.995L60.884,219.828C61.788,223.241 62.067,226.791 62.625,230.27C63.25,232.149 63.529,234.236 63.529,236.257C63.529,237.024 63.459,237.857 63.392,238.624L62.763,238.97C61.579,238.345 60.604,237.441 59.842,236.328C56.429,231.453 55.663,225.607 52.95,220.457C50.513,217.811 48.075,215.095 46.892,211.753C46.267,209.111 46.059,206.324 46.059,203.541C46.059,200.407 46.267,197.207 46.404,194.145L46.404,191.849C46.404,180.991 48.217,170.824 51.279,160.316C52.879,154.957 54.829,149.666 56.779,144.374C60.604,132.961 66.8,122.032 73.346,112.007C77.171,106.72 81.904,101.291 87.125,97.253C98.334,89.316 111.071,85.07 124.367,82.216C137.592,79.361 151.375,77.899 164.392,75.603C173.229,73.586 186.038,70.453 194.392,74.978L194.809,75.395L195.296,76.37Z" style="fill:rgb(170,206,145);fill-rule:nonzero;"/>
            <path d="M69.376,285.747L90.26,285.747L90.26,329.043C87.264,319.784 84.76,310.389 79.61,301.964C76.126,296.468 72.301,291.384 69.376,285.747" style="fill:rgb(170,206,145);fill-rule:nonzero;"/>
            <path d="M421.44,146.889C418.024,146.264 411.149,145.014 407.732,144.389L407.732,160.889L392.232,157.264L392.232,141.805L377.44,138.305L377.44,122.389L392.899,126.055L393.19,109.639L398.982,110.889L399.024,110.972L409.399,113.139C409.482,114.305 409.065,125.18 409.774,128.639L409.774,128.722C409.774,128.764 409.774,128.805 409.815,128.847C409.899,129.264 410.024,129.597 410.19,129.68L410.232,129.68L416.982,130.389L417.024,130.389L417.69,130.472L417.732,130.472L421.44,130.805L421.44,146.889ZM426.024,112.097C413.732,111.222 401.315,106.639 390.315,102.139C380.732,97.055 366.44,98.847 353.94,98.722L353.565,155.597C384.774,150.305 414.607,180.93 444.774,165.18L444.774,111.389C438.565,113.347 432.357,112.555 426.024,112.097" style="fill:rgb(224,52,42);fill-rule:nonzero;"/>
            <path d="M141.606,217.305L151.273,214.721L147.273,210.721L159.565,207.596L165.565,213.638L155.148,213.68L158.648,217.18L141.606,217.305Z" style="fill:rgb(101,134,110);fill-rule:nonzero;"/>
            <path d="M165.565,263.055L159.565,257.014L147.273,260.139L151.273,264.139L141.606,266.722L158.648,266.597L155.148,263.139L165.565,263.055ZM165.565,238.639L159.565,232.597L147.273,235.722L151.273,239.68L141.606,242.264L158.648,242.139L155.148,238.68L165.565,238.639ZM165.565,238.639L159.565,232.597L147.273,235.722L151.273,239.68L141.606,242.264L158.648,242.139L155.148,238.68L165.565,238.639ZM165.565,263.055L159.565,257.014L147.273,260.139L151.273,264.139L141.606,266.722L158.648,266.597L155.148,263.139L165.565,263.055ZM165.565,263.055L159.565,257.014L147.273,260.139L151.273,264.139L141.606,266.722L158.648,266.597L155.148,263.139L165.565,263.055ZM165.565,238.639L159.565,232.597L147.273,235.722L151.273,239.68L141.606,242.264L158.648,242.139L155.148,238.68L165.565,238.639ZM252.356,263.055L246.356,257.014L234.065,260.139L238.065,264.139L228.44,266.722L245.44,266.597L241.94,263.139L252.356,263.055ZM252.356,238.639L246.356,232.597L234.065,235.722L238.065,239.68L228.44,242.264L245.44,242.139L241.94,238.68L252.356,238.639ZM252.356,238.639L246.356,232.597L234.065,235.722L238.065,239.68L228.44,242.264L245.44,242.139L241.94,238.68L252.356,238.639ZM252.356,263.055L246.356,257.014L234.065,260.139L238.065,264.139L228.44,266.722L245.44,266.597L241.94,263.139L252.356,263.055ZM165.565,238.639L159.565,232.597L147.273,235.722L151.273,239.68L141.606,242.264L158.648,242.139L155.148,238.68L165.565,238.639ZM165.565,263.055L159.565,257.014L147.273,260.139L151.273,264.139L141.606,266.722L158.648,266.597L155.148,263.139L165.565,263.055ZM165.565,263.055L159.565,257.014L147.273,260.139L151.273,264.139L141.606,266.722L158.648,266.597L155.148,263.139L165.565,263.055ZM165.565,238.639L159.565,232.597L147.273,235.722L151.273,239.68L141.606,242.264L158.648,242.139L155.148,238.68L165.565,238.639ZM252.356,263.055L246.356,257.014L234.065,260.139L238.065,264.139L228.44,266.722L245.44,266.597L241.94,263.139L252.356,263.055ZM252.356,238.639L246.356,232.597L234.065,235.722L238.065,239.68L228.44,242.264L245.44,242.139L241.94,238.68L252.356,238.639ZM252.356,213.639L246.356,207.597L234.065,210.722L238.065,214.722L228.44,217.305L245.44,217.18L241.94,213.68L252.356,213.639ZM336.815,213.639L330.773,207.597L318.523,210.722L322.523,214.722L312.856,217.305L329.856,217.18L326.398,213.68L336.815,213.639ZM336.815,213.639L330.773,207.597L318.523,210.722L322.523,214.722L312.856,217.305L329.856,217.18L326.398,213.68L336.815,213.639ZM252.356,213.639L246.356,207.597L234.065,210.722L238.065,214.722L228.44,217.305L245.44,217.18L241.94,213.68L252.356,213.639ZM252.356,238.639L246.356,232.597L234.065,235.722L238.065,239.68L228.44,242.264L245.44,242.139L241.94,238.68L252.356,238.639ZM252.356,263.055L246.356,257.014L234.065,260.139L238.065,264.139L228.44,266.722L245.44,266.597L241.94,263.139L252.356,263.055ZM165.565,238.639L159.565,232.597L147.273,235.722L151.273,239.68L141.606,242.264L158.648,242.139L155.148,238.68L165.565,238.639ZM165.565,263.055L159.565,257.014L147.273,260.139L151.273,264.139L141.606,266.722L158.648,266.597L155.148,263.139L165.565,263.055ZM165.565,263.055L159.565,257.014L147.273,260.139L151.273,264.139L141.606,266.722L158.648,266.597L155.148,263.139L165.565,263.055ZM165.565,238.639L159.565,232.597L147.273,235.722L151.273,239.68L141.606,242.264L158.648,242.139L155.148,238.68L165.565,238.639ZM252.356,263.055L246.356,257.014L234.065,260.139L238.065,264.139L228.44,266.722L245.44,266.597L241.94,263.139L252.356,263.055ZM252.356,238.639L246.356,232.597L234.065,235.722L238.065,239.68L228.44,242.264L245.44,242.139L241.94,238.68L252.356,238.639ZM252.356,213.639L246.356,207.597L234.065,210.722L238.065,214.722L228.44,217.305L245.44,217.18L241.94,213.68L252.356,213.639ZM336.815,263.055L330.773,257.014L318.523,260.139L322.523,264.139L312.856,266.722L329.856,266.597L326.398,263.139L336.815,263.055ZM336.815,238.639L330.773,232.597L318.523,235.722L322.523,239.68L312.856,242.264L329.856,242.139L326.398,238.68L336.815,238.639ZM336.815,213.639L330.773,207.597L318.523,210.722L322.523,214.722L312.856,217.305L329.856,217.18L326.398,213.68L336.815,213.639ZM336.815,213.639L330.773,207.597L318.523,210.722L322.523,214.722L312.856,217.305L329.856,217.18L326.398,213.68L336.815,213.639ZM336.815,238.639L330.773,232.597L318.523,235.722L322.523,239.68L312.856,242.264L329.856,242.139L326.398,238.68L336.815,238.639ZM336.815,263.055L330.773,257.014L318.523,260.139L322.523,264.139L312.856,266.722L329.856,266.597L326.398,263.139L336.815,263.055ZM252.356,213.639L246.356,207.597L234.065,210.722L238.065,214.722L228.44,217.305L245.44,217.18L241.94,213.68L252.356,213.639ZM252.356,238.639L246.356,232.597L234.065,235.722L238.065,239.68L228.44,242.264L245.44,242.139L241.94,238.68L252.356,238.639ZM252.356,263.055L246.356,257.014L234.065,260.139L238.065,264.139L228.44,266.722L245.44,266.597L241.94,263.139L252.356,263.055ZM165.565,238.639L159.565,232.597L147.273,235.722L151.273,239.68L141.606,242.264L158.648,242.139L155.148,238.68L165.565,238.639ZM165.565,263.055L159.565,257.014L147.273,260.139L151.273,264.139L141.606,266.722L158.648,266.597L155.148,263.139L165.565,263.055ZM165.565,263.055L159.565,257.014L147.273,260.139L151.273,264.139L141.606,266.722L158.648,266.597L155.148,263.139L165.565,263.055ZM165.565,238.639L159.565,232.597L147.273,235.722L151.273,239.68L141.606,242.264L158.648,242.139L155.148,238.68L165.565,238.639ZM252.356,263.055L246.356,257.014L234.065,260.139L238.065,264.139L228.44,266.722L245.44,266.597L241.94,263.139L252.356,263.055ZM252.356,238.639L246.356,232.597L234.065,235.722L238.065,239.68L228.44,242.264L245.44,242.139L241.94,238.68L252.356,238.639ZM252.356,213.639L246.356,207.597L234.065,210.722L238.065,214.722L228.44,217.305L245.44,217.18L241.94,213.68L252.356,213.639ZM336.815,263.055L330.773,257.014L318.523,260.139L322.523,264.139L312.856,266.722L329.856,266.597L326.398,263.139L336.815,263.055ZM336.815,238.639L330.773,232.597L318.523,235.722L322.523,239.68L312.856,242.264L329.856,242.139L326.398,238.68L336.815,238.639ZM336.815,213.639L330.773,207.597L318.523,210.722L322.523,214.722L312.856,217.305L329.856,217.18L326.398,213.68L336.815,213.639ZM336.815,213.639L330.773,207.597L318.523,210.722L322.523,214.722L312.856,217.305L329.856,217.18L326.398,213.68L336.815,213.639ZM336.815,238.639L330.773,232.597L318.523,235.722L322.523,239.68L312.856,242.264L329.856,242.139L326.398,238.68L336.815,238.639ZM336.815,263.055L330.773,257.014L318.523,260.139L322.523,264.139L312.856,266.722L329.856,266.597L326.398,263.139L336.815,263.055ZM252.356,213.639L246.356,207.597L234.065,210.722L238.065,214.722L228.44,217.305L245.44,217.18L241.94,213.68L252.356,213.639ZM252.356,238.639L246.356,232.597L234.065,235.722L238.065,239.68L228.44,242.264L245.44,242.139L241.94,238.68L252.356,238.639ZM252.356,263.055L246.356,257.014L234.065,260.139L238.065,264.139L228.44,266.722L245.44,266.597L241.94,263.139L252.356,263.055ZM165.565,238.639L159.565,232.597L147.273,235.722L151.273,239.68L141.606,242.264L158.648,242.139L155.148,238.68L165.565,238.639ZM165.565,263.055L159.565,257.014L147.273,260.139L151.273,264.139L141.606,266.722L158.648,266.597L155.148,263.139L165.565,263.055ZM165.565,263.055L159.565,257.014L147.273,260.139L151.273,264.139L141.606,266.722L158.648,266.597L155.148,263.139L165.565,263.055ZM165.565,238.639L159.565,232.597L147.273,235.722L151.273,239.68L141.606,242.264L158.648,242.139L155.148,238.68L165.565,238.639ZM252.356,263.055L246.356,257.014L234.065,260.139L238.065,264.139L228.44,266.722L245.44,266.597L241.94,263.139L252.356,263.055ZM252.356,238.639L246.356,232.597L234.065,235.722L238.065,239.68L228.44,242.264L245.44,242.139L241.94,238.68L252.356,238.639ZM252.356,213.639L246.356,207.597L234.065,210.722L238.065,214.722L228.44,217.305L245.44,217.18L241.94,213.68L252.356,213.639ZM336.815,263.055L330.773,257.014L318.523,260.139L322.523,264.139L312.856,266.722L329.856,266.597L326.398,263.139L336.815,263.055ZM336.815,238.639L330.773,232.597L318.523,235.722L322.523,239.68L312.856,242.264L329.856,242.139L326.398,238.68L336.815,238.639ZM336.815,213.639L330.773,207.597L318.523,210.722L322.523,214.722L312.856,217.305L329.856,217.18L326.398,213.68L336.815,213.639ZM336.815,213.639L330.773,207.597L318.523,210.722L322.523,214.722L312.856,217.305L329.856,217.18L326.398,213.68L336.815,213.639ZM336.815,238.639L330.773,232.597L318.523,235.722L322.523,239.68L312.856,242.264L329.856,242.139L326.398,238.68L336.815,238.639ZM336.815,263.055L330.773,257.014L318.523,260.139L322.523,264.139L312.856,266.722L329.856,266.597L326.398,263.139L336.815,263.055ZM252.356,213.639L246.356,207.597L234.065,210.722L238.065,214.722L228.44,217.305L245.44,217.18L241.94,213.68L252.356,213.639ZM252.356,238.639L246.356,232.597L234.065,235.722L238.065,239.68L228.44,242.264L245.44,242.139L241.94,238.68L252.356,238.639ZM252.356,263.055L246.356,257.014L234.065,260.139L238.065,264.139L228.44,266.722L245.44,266.597L241.94,263.139L252.356,263.055ZM165.565,238.639L159.565,232.597L147.273,235.722L151.273,239.68L141.606,242.264L158.648,242.139L155.148,238.68L165.565,238.639ZM165.565,263.055L159.565,257.014L147.273,260.139L151.273,264.139L141.606,266.722L158.648,266.597L155.148,263.139L165.565,263.055ZM158.648,266.597L155.148,263.139L165.565,263.055L159.565,257.014L147.273,260.139L151.273,264.139L141.606,266.722L158.648,266.597ZM158.648,242.139L155.148,238.68L165.565,238.639L159.565,232.597L147.273,235.722L151.273,239.68L141.606,242.264L158.648,242.139ZM245.44,266.597L241.94,263.139L252.356,263.055L246.356,257.014L234.065,260.139L238.065,264.139L228.44,266.722L245.44,266.597ZM245.44,242.139L241.94,238.68L252.356,238.639L246.356,232.597L234.065,235.722L238.065,239.68L228.44,242.264L245.44,242.139ZM245.44,217.18L241.94,213.68L252.356,213.639L246.356,207.597L234.065,210.722L238.065,214.722L228.44,217.305L245.44,217.18ZM329.856,266.597L326.398,263.139L336.815,263.055L330.773,257.014L318.523,260.139L322.523,264.139L312.856,266.722L329.856,266.597ZM329.856,242.139L326.398,238.68L336.815,238.639L330.773,232.597L318.523,235.722L322.523,239.68L312.856,242.264L329.856,242.139ZM329.856,217.18L326.398,213.68L336.815,213.639L330.773,207.597L318.523,210.722L322.523,214.722L312.856,217.305L329.856,217.18ZM346.731,222.472L302.94,222.472L302.94,203.514L346.731,203.514L346.731,222.472ZM346.731,246.889L302.94,246.889L302.94,227.972L346.731,227.972L346.731,246.889ZM346.731,271.347L302.94,271.347L302.94,252.43L346.731,252.43L346.731,271.347ZM262.273,222.472L218.523,222.472L218.523,203.514L262.273,203.514L262.273,222.472ZM262.273,246.889L218.523,246.889L218.523,227.972L262.273,227.972L262.273,246.889ZM262.273,271.347L218.523,271.347L218.523,252.43L262.273,252.43L262.273,271.347ZM177.856,222.472L134.106,222.472L134.106,203.514L177.856,203.514L177.856,222.472ZM177.856,246.889L134.106,246.889L134.106,227.972L177.856,227.972L177.856,246.889ZM177.856,271.347L134.106,271.347L134.106,252.43L177.856,252.43L177.856,271.347ZM107.231,189.639L107.231,199.639L92.69,199.639L92.69,189.639L73.773,189.639L73.773,278.805L407.023,278.805L407.023,189.639L107.231,189.639ZM165.565,263.055L159.565,257.014L147.273,260.139L151.273,264.139L141.606,266.722L158.648,266.597L155.148,263.139L165.565,263.055ZM165.565,238.639L159.565,232.597L147.273,235.722L151.273,239.68L141.606,242.264L158.648,242.139L155.148,238.68L165.565,238.639ZM252.356,263.055L246.356,257.014L234.065,260.139L238.065,264.139L228.44,266.722L245.44,266.597L241.94,263.139L252.356,263.055ZM252.356,238.639L246.356,232.597L234.065,235.722L238.065,239.68L228.44,242.264L245.44,242.139L241.94,238.68L252.356,238.639ZM252.356,213.639L246.356,207.597L234.065,210.722L238.065,214.722L228.44,217.305L245.44,217.18L241.94,213.68L252.356,213.639ZM336.815,263.055L330.773,257.014L318.523,260.139L322.523,264.139L312.856,266.722L329.856,266.597L326.398,263.139L336.815,263.055ZM336.815,238.639L330.773,232.597L318.523,235.722L322.523,239.68L312.856,242.264L329.856,242.139L326.398,238.68L336.815,238.639ZM336.815,213.639L330.773,207.597L318.523,210.722L322.523,214.722L312.856,217.305L329.856,217.18L326.398,213.68L336.815,213.639ZM336.815,213.639L330.773,207.597L318.523,210.722L322.523,214.722L312.856,217.305L329.856,217.18L326.398,213.68L336.815,213.639ZM336.815,238.639L330.773,232.597L318.523,235.722L322.523,239.68L312.856,242.264L329.856,242.139L326.398,238.68L336.815,238.639ZM336.815,263.055L330.773,257.014L318.523,260.139L322.523,264.139L312.856,266.722L329.856,266.597L326.398,263.139L336.815,263.055ZM252.356,213.639L246.356,207.597L234.065,210.722L238.065,214.722L228.44,217.305L245.44,217.18L241.94,213.68L252.356,213.639ZM252.356,238.639L246.356,232.597L234.065,235.722L238.065,239.68L228.44,242.264L245.44,242.139L241.94,238.68L252.356,238.639ZM252.356,263.055L246.356,257.014L234.065,260.139L238.065,264.139L228.44,266.722L245.44,266.597L241.94,263.139L252.356,263.055ZM165.565,238.639L159.565,232.597L147.273,235.722L151.273,239.68L141.606,242.264L158.648,242.139L155.148,238.68L165.565,238.639ZM165.565,263.055L159.565,257.014L147.273,260.139L151.273,264.139L141.606,266.722L158.648,266.597L155.148,263.139L165.565,263.055ZM165.565,263.055L159.565,257.014L147.273,260.139L151.273,264.139L141.606,266.722L158.648,266.597L155.148,263.139L165.565,263.055ZM165.565,238.639L159.565,232.597L147.273,235.722L151.273,239.68L141.606,242.264L158.648,242.139L155.148,238.68L165.565,238.639ZM252.356,263.055L246.356,257.014L234.065,260.139L238.065,264.139L228.44,266.722L245.44,266.597L241.94,263.139L252.356,263.055ZM252.356,238.639L246.356,232.597L234.065,235.722L238.065,239.68L228.44,242.264L245.44,242.139L241.94,238.68L252.356,238.639ZM252.356,213.639L246.356,207.597L234.065,210.722L238.065,214.722L228.44,217.305L245.44,217.18L241.94,213.68L252.356,213.639ZM336.815,263.055L330.773,257.014L318.523,260.139L322.523,264.139L312.856,266.722L329.856,266.597L326.398,263.139L336.815,263.055ZM336.815,238.639L330.773,232.597L318.523,235.722L322.523,239.68L312.856,242.264L329.856,242.139L326.398,238.68L336.815,238.639ZM336.815,213.639L330.773,207.597L318.523,210.722L322.523,214.722L312.856,217.305L329.856,217.18L326.398,213.68L336.815,213.639ZM336.815,213.639L330.773,207.597L318.523,210.722L322.523,214.722L312.856,217.305L329.856,217.18L326.398,213.68L336.815,213.639ZM336.815,238.639L330.773,232.597L318.523,235.722L322.523,239.68L312.856,242.264L329.856,242.139L326.398,238.68L336.815,238.639ZM336.815,263.055L330.773,257.014L318.523,260.139L322.523,264.139L312.856,266.722L329.856,266.597L326.398,263.139L336.815,263.055ZM252.356,213.639L246.356,207.597L234.065,210.722L238.065,214.722L228.44,217.305L245.44,217.18L241.94,213.68L252.356,213.639ZM252.356,238.639L246.356,232.597L234.065,235.722L238.065,239.68L228.44,242.264L245.44,242.139L241.94,238.68L252.356,238.639ZM252.356,263.055L246.356,257.014L234.065,260.139L238.065,264.139L228.44,266.722L245.44,266.597L241.94,263.139L252.356,263.055ZM165.565,238.639L159.565,232.597L147.273,235.722L151.273,239.68L141.606,242.264L158.648,242.139L155.148,238.68L165.565,238.639ZM165.565,263.055L159.565,257.014L147.273,260.139L151.273,264.139L141.606,266.722L158.648,266.597L155.148,263.139L165.565,263.055ZM165.565,263.055L159.565,257.014L147.273,260.139L151.273,264.139L141.606,266.722L158.648,266.597L155.148,263.139L165.565,263.055ZM165.565,238.639L159.565,232.597L147.273,235.722L151.273,239.68L141.606,242.264L158.648,242.139L155.148,238.68L165.565,238.639ZM252.356,263.055L246.356,257.014L234.065,260.139L238.065,264.139L228.44,266.722L245.44,266.597L241.94,263.139L252.356,263.055ZM252.356,238.639L246.356,232.597L234.065,235.722L238.065,239.68L228.44,242.264L245.44,242.139L241.94,238.68L252.356,238.639ZM252.356,213.639L246.356,207.597L234.065,210.722L238.065,214.722L228.44,217.305L245.44,217.18L241.94,213.68L252.356,213.639ZM336.815,263.055L330.773,257.014L318.523,260.139L322.523,264.139L312.856,266.722L329.856,266.597L326.398,263.139L336.815,263.055ZM336.815,238.639L330.773,232.597L318.523,235.722L322.523,239.68L312.856,242.264L329.856,242.139L326.398,238.68L336.815,238.639ZM336.815,213.639L330.773,207.597L318.523,210.722L322.523,214.722L312.856,217.305L329.856,217.18L326.398,213.68L336.815,213.639ZM336.815,213.639L330.773,207.597L318.523,210.722L322.523,214.722L312.856,217.305L329.856,217.18L326.398,213.68L336.815,213.639ZM336.815,238.639L330.773,232.597L318.523,235.722L322.523,239.68L312.856,242.264L329.856,242.139L326.398,238.68L336.815,238.639ZM336.815,263.055L330.773,257.014L318.523,260.139L322.523,264.139L312.856,266.722L329.856,266.597L326.398,263.139L336.815,263.055ZM252.356,213.639L246.356,207.597L234.065,210.722L238.065,214.722L228.44,217.305L245.44,217.18L241.94,213.68L252.356,213.639ZM252.356,238.639L246.356,232.597L234.065,235.722L238.065,239.68L228.44,242.264L245.44,242.139L241.94,238.68L252.356,238.639ZM252.356,263.055L246.356,257.014L234.065,260.139L238.065,264.139L228.44,266.722L245.44,266.597L241.94,263.139L252.356,263.055ZM165.565,238.639L159.565,232.597L147.273,235.722L151.273,239.68L141.606,242.264L158.648,242.139L155.148,238.68L165.565,238.639ZM165.565,263.055L159.565,257.014L147.273,260.139L151.273,264.139L141.606,266.722L158.648,266.597L155.148,263.139L165.565,263.055ZM165.565,263.055L159.565,257.014L147.273,260.139L151.273,264.139L141.606,266.722L158.648,266.597L155.148,263.139L165.565,263.055ZM165.565,238.639L159.565,232.597L147.273,235.722L151.273,239.68L141.606,242.264L158.648,242.139L155.148,238.68L165.565,238.639ZM252.356,263.055L246.356,257.014L234.065,260.139L238.065,264.139L228.44,266.722L245.44,266.597L241.94,263.139L252.356,263.055ZM252.356,238.639L246.356,232.597L234.065,235.722L238.065,239.68L228.44,242.264L245.44,242.139L241.94,238.68L252.356,238.639ZM252.356,213.639L246.356,207.597L234.065,210.722L238.065,214.722L228.44,217.305L245.44,217.18L241.94,213.68L252.356,213.639ZM336.815,238.639L330.773,232.597L318.523,235.722L322.523,239.68L312.856,242.264L329.856,242.139L326.398,238.68L336.815,238.639ZM336.815,213.639L330.773,207.597L318.523,210.722L322.523,214.722L312.856,217.305L329.856,217.18L326.398,213.68L336.815,213.639ZM336.815,213.639L330.773,207.597L318.523,210.722L322.523,214.722L312.856,217.305L329.856,217.18L326.398,213.68L336.815,213.639ZM336.815,238.639L330.773,232.597L318.523,235.722L322.523,239.68L312.856,242.264L329.856,242.139L326.398,238.68L336.815,238.639ZM252.356,213.639L246.356,207.597L234.065,210.722L238.065,214.722L228.44,217.305L245.44,217.18L241.94,213.68L252.356,213.639ZM252.356,238.639L246.356,232.597L234.065,235.722L238.065,239.68L228.44,242.264L245.44,242.139L241.94,238.68L252.356,238.639ZM252.356,263.055L246.356,257.014L234.065,260.139L238.065,264.139L228.44,266.722L245.44,266.597L241.94,263.139L252.356,263.055ZM165.565,238.639L159.565,232.597L147.273,235.722L151.273,239.68L141.606,242.264L158.648,242.139L155.148,238.68L165.565,238.639ZM165.565,263.055L159.565,257.014L147.273,260.139L151.273,264.139L141.606,266.722L158.648,266.597L155.148,263.139L165.565,263.055ZM165.565,263.055L159.565,257.014L147.273,260.139L151.273,264.139L141.606,266.722L158.648,266.597L155.148,263.139L165.565,263.055ZM165.565,238.639L159.565,232.597L147.273,235.722L151.273,239.68L141.606,242.264L158.648,242.139L155.148,238.68L165.565,238.639ZM252.356,263.055L246.356,257.014L234.065,260.139L238.065,264.139L228.44,266.722L245.44,266.597L241.94,263.139L252.356,263.055ZM252.356,238.639L246.356,232.597L234.065,235.722L238.065,239.68L228.44,242.264L245.44,242.139L241.94,238.68L252.356,238.639ZM252.356,213.639L246.356,207.597L234.065,210.722L238.065,214.722L228.44,217.305L245.44,217.18L241.94,213.68L252.356,213.639ZM252.356,213.639L246.356,207.597L234.065,210.722L238.065,214.722L228.44,217.305L245.44,217.18L241.94,213.68L252.356,213.639ZM252.356,238.639L246.356,232.597L234.065,235.722L238.065,239.68L228.44,242.264L245.44,242.139L241.94,238.68L252.356,238.639ZM252.356,263.055L246.356,257.014L234.065,260.139L238.065,264.139L228.44,266.722L245.44,266.597L241.94,263.139L252.356,263.055ZM165.565,238.639L159.565,232.597L147.273,235.722L151.273,239.68L141.606,242.264L158.648,242.139L155.148,238.68L165.565,238.639ZM165.565,263.055L159.565,257.014L147.273,260.139L151.273,264.139L141.606,266.722L158.648,266.597L155.148,263.139L165.565,263.055ZM165.565,263.055L159.565,257.014L147.273,260.139L151.273,264.139L141.606,266.722L158.648,266.597L155.148,263.139L165.565,263.055ZM165.565,238.639L159.565,232.597L147.273,235.722L151.273,239.68L141.606,242.264L158.648,242.139L155.148,238.68L165.565,238.639ZM252.356,263.055L246.356,257.014L234.065,260.139L238.065,264.139L228.44,266.722L245.44,266.597L241.94,263.139L252.356,263.055ZM252.356,263.055L246.356,257.014L234.065,260.139L238.065,264.139L228.44,266.722L245.44,266.597L241.94,263.139L252.356,263.055ZM165.565,238.639L159.565,232.597L147.273,235.722L151.273,239.68L141.606,242.264L158.648,242.139L155.148,238.68L165.565,238.639ZM165.565,263.055L159.565,257.014L147.273,260.139L151.273,264.139L141.606,266.722L158.648,266.597L155.148,263.139L165.565,263.055ZM165.565,238.639L159.565,232.597L147.273,235.722L151.273,239.68L141.606,242.264L158.648,242.139L155.148,238.68L165.565,238.639ZM165.565,238.639L159.565,232.597L147.273,235.722L151.273,239.68L141.606,242.264L158.648,242.139L155.148,238.68L165.565,238.639Z" style="fill:rgb(101,134,110);fill-rule:nonzero;"/>
            <rect x="92.692" y="165.345" width="14.542" height="34.292" style="fill:rgb(142,163,149);"/>
            <path d="M346.734,330.804L302.942,330.804L302.942,304.595L346.734,304.595L346.734,330.804ZM262.271,330.804L218.521,330.804L218.521,304.595L262.271,304.595L262.271,330.804ZM262.271,390.304L218.521,390.304L218.521,364.054L262.271,364.054L262.271,390.304ZM178.109,390.054L134.317,390.054L134.317,363.804L178.109,363.804L178.109,390.054ZM134.104,307.387L177.854,307.387L177.854,333.637L134.104,333.637L134.104,307.387ZM97.234,278.804L97.234,419.179C105.442,416.554 113.65,414.22 121.775,412.22C122.4,412.012 123.025,411.887 123.65,411.72C182.15,397.179 243.9,393.845 303.896,401.72C306.525,402.054 309.104,402.429 311.734,402.804L311.734,375.554C311.734,372.262 313.234,369.345 315.609,367.429C317.4,365.97 319.692,365.095 322.15,365.095L327.525,365.095C333.275,365.095 337.942,369.804 337.942,375.554L337.942,407.387C338.109,407.429 338.234,407.429 338.4,407.47C339.942,407.845 341.525,408.095 343.067,408.387C343.563,408.595 344.067,408.679 344.604,408.804C345.734,409.095 346.9,409.304 348.025,409.595C351.025,410.345 354.15,411.054 357.15,411.804L357.15,411.887C357.609,412.012 358.025,412.095 358.525,412.22C366.817,414.22 375.109,416.554 383.359,419.179L383.567,419.179L383.567,278.804L97.234,278.804Z" style="fill:rgb(142,163,149);fill-rule:nonzero;"/>
            <path d="M155.148,213.68L158.648,217.18L141.606,217.305L151.273,214.721L147.273,210.721L159.565,207.596L165.565,213.638L155.148,213.68Z" style="fill:white;fill-rule:nonzero;"/>
            <path d="M155.148,238.68L158.648,242.138L141.606,242.263L151.273,239.68L147.273,235.721L159.565,232.596L165.565,238.638L155.148,238.68Z" style="fill:white;fill-rule:nonzero;"/>
            <path d="M155.148,263.138L158.648,266.596L141.606,266.721L151.273,264.138L147.273,260.138L159.565,257.013L165.565,263.055L155.148,263.138Z" style="fill:white;fill-rule:nonzero;"/>
            <path d="M241.94,213.68L245.44,217.18L228.44,217.305L238.065,214.721L234.065,210.721L246.357,207.596L252.357,213.638L241.94,213.68Z" style="fill:white;fill-rule:nonzero;"/>
            <path d="M241.94,238.68L245.44,242.138L228.44,242.263L238.065,239.68L234.065,235.721L246.357,232.596L252.357,238.638L241.94,238.68Z" style="fill:white;fill-rule:nonzero;"/>
            <path d="M241.94,263.138L245.44,266.596L228.44,266.721L238.065,264.138L234.065,260.138L246.357,257.013L252.357,263.055L241.94,263.138Z" style="fill:white;fill-rule:nonzero;"/>
            <path d="M326.399,213.68L329.857,217.18L312.857,217.305L322.524,214.721L318.524,210.721L330.774,207.596L336.815,213.638L326.399,213.68Z" style="fill:white;fill-rule:nonzero;"/>
            <path d="M326.399,238.68L329.857,242.138L312.857,242.263L322.524,239.68L318.524,235.721L330.774,232.596L336.815,238.638L326.399,238.68Z" style="fill:white;fill-rule:nonzero;"/>
            <path d="M326.399,263.138L329.857,266.596L312.857,266.721L322.524,264.138L318.524,260.138L330.774,257.013L336.815,263.055L326.399,263.138Z" style="fill:white;fill-rule:nonzero;"/>
            <path d="M337.94,407.388L337.94,408.888L311.732,408.888L311.732,402.805C319.19,403.93 326.649,405.221 334.107,406.721L334.44,406.721C335.607,406.888 336.774,407.138 337.94,407.388" style="fill:white;fill-rule:nonzero;"/>
            <path d="M477.357,462.555C433.899,445.43 388.232,433.305 341.69,426.139C318.982,422.597 296.065,420.305 273.107,419.18C251.19,418.055 229.19,418.055 207.19,419.18C184.149,420.305 161.274,422.597 138.482,426.139C92.149,433.305 46.69,445.43 3.44,462.555C29.274,445.847 59.357,431.764 90.274,421.472C92.565,420.639 94.94,419.889 97.232,419.18C105.44,416.555 113.649,414.222 121.774,412.222C122.399,412.014 123.024,411.889 123.649,411.722C182.149,397.18 243.899,393.847 303.899,401.722C306.524,402.055 309.107,402.43 311.732,402.805C319.19,403.93 326.649,405.222 334.107,406.722L334.44,406.722C335.607,406.889 336.774,407.139 337.94,407.389C338.107,407.43 338.232,407.43 338.399,407.472C339.94,407.847 341.524,408.097 343.065,408.389C343.565,408.597 344.065,408.68 344.607,408.805C345.732,409.097 346.899,409.305 348.024,409.597C351.024,410.347 354.149,411.055 357.149,411.805L357.149,411.889C357.607,412.014 358.024,412.097 358.524,412.222C366.815,414.222 375.107,416.555 383.357,419.18C385.732,419.889 388.19,420.639 390.524,421.472C421.44,431.764 451.44,445.847 477.357,462.555" style="fill:rgb(119,178,225);fill-rule:nonzero;"/>
            <path d="M155.148,213.68L158.648,217.18L141.606,217.305L151.273,214.721L147.273,210.721L159.565,207.596L165.565,213.638L155.148,213.68Z" style="fill:rgb(142,163,149);fill-rule:nonzero;"/>
            <path d="M155.148,238.68L158.648,242.138L141.606,242.263L151.273,239.68L147.273,235.721L159.565,232.596L165.565,238.638L155.148,238.68Z" style="fill:rgb(142,163,149);fill-rule:nonzero;"/>
            <path d="M155.148,263.138L158.648,266.596L141.606,266.721L151.273,264.138L147.273,260.138L159.565,257.013L165.565,263.055L155.148,263.138Z" style="fill:rgb(142,163,149);fill-rule:nonzero;"/>
            <path d="M241.94,213.68L245.44,217.18L228.44,217.305L238.065,214.721L234.065,210.721L246.357,207.596L252.357,213.638L241.94,213.68Z" style="fill:rgb(142,163,149);fill-rule:nonzero;"/>
            <path d="M241.94,238.68L245.44,242.138L228.44,242.263L238.065,239.68L234.065,235.721L246.357,232.596L252.357,238.638L241.94,238.68Z" style="fill:rgb(142,163,149);fill-rule:nonzero;"/>
            <path d="M241.94,263.138L245.44,266.596L228.44,266.721L238.065,264.138L234.065,260.138L246.357,257.013L252.357,263.055L241.94,263.138Z" style="fill:rgb(142,163,149);fill-rule:nonzero;"/>
            <path d="M326.399,213.68L329.857,217.18L312.857,217.305L322.524,214.721L318.524,210.721L330.774,207.596L336.815,213.638L326.399,213.68Z" style="fill:rgb(142,163,149);fill-rule:nonzero;"/>
            <path d="M326.399,238.68L329.857,242.138L312.857,242.263L322.524,239.68L318.524,235.721L330.774,232.596L336.815,238.638L326.399,238.68Z" style="fill:rgb(142,163,149);fill-rule:nonzero;"/>
            <path d="M326.399,263.138L329.857,266.596L312.857,266.721L322.524,264.138L318.524,260.138L330.774,257.013L336.815,263.055L326.399,263.138Z" style="fill:rgb(142,163,149);fill-rule:nonzero;"/>
        </g>
    </g>
</svg>
