<svg xmlns="http://www.w3.org/2000/svg" xml:space="preserve" style="fill-rule:evenodd;clip-rule:evenodd;stroke-linejoin:round;stroke-miterlimit:2" viewBox="0 0 5834 2334"><path d="M1 .548Q1 .591.957.591H.732L.733-.17c0-.06-.022-.079-.072-.079h-.06C.551-.249.53-.23.53-.17L.529.591H.043Q0 .591 0 .548V.334Q0 .291.043.291h.251V-.05L.023-.243C.007-.255 0-.263 0-.295V-.55c0-.035.033-.036.047-.025l.28.218c.034-.136.132-.192.284-.192h.092c.194 0 .297.09.297.317z" style="fill:url(#a);fill-rule:nonzero" transform="matrix(0 -777.56939 -777.56939 0 1122.162 1231.32)"/><path d="M1 .668A.4.4 0 0 0 .732.565l.001-.812c0-.06-.022-.079-.072-.079h-.06c-.05 0-.071.019-.071.079l.001.761H.043Q0 .514 0 .471V.257Q0 .214.043.214h.251v-.341L.023-.32C.007-.332 0-.34 0-.372v-.255c0-.035.033-.036.047-.025l.28.218C.361-.57.459-.626.611-.626h.092c.194 0 .297.09.297.317z" style="fill:url(#b);fill-rule:nonzero" transform="matrix(0 -777.5975 -777.5975 0 2076.46 1231.308)"/><path d="M1-.396c0 .023-.006.033-.023.042l-.69.334q-.01.006-.01.016v.007q0 .01.01.016l.69.342C.994.37 1 .38 1 .403v.253C1 .687.981.691.957.679L.144.26C.027.2 0 .14 0 .043v-.114c0-.078.027-.138.144-.198l.813-.41C.981-.691 1-.687 1-.656z" style="fill:url(#c);fill-rule:nonzero" transform="matrix(0 -777.56939 -777.56939 0 3110.781 1231.32)"/><path d="M1 .273C1 .457.901.55.754.55H.649C.481.55.384.453.384.277v-.491q0-.037-.04-.036H.311q-.04 0-.04.037v.719q0 .043-.042.043H.043Q0 .549 0 .506v-.779C0-.457.099-.55.246-.55h.113c.167 0 .264.097.264.273v.491q0 .037.04.036h.026q.04 0 .04-.037V-.47q0-.043.042-.043h.186Q1-.513 1-.47z" style="fill:url(#d);fill-rule:nonzero" transform="matrix(0 -777.56939 -777.56939 0 4261.81 1231.32)"/><path d="M1 .071C1 .149.973.209.856.269l-.813.41C.019.691 0 .687 0 .656v-.26C0 .373.006.363.023.354l.15-.073v-.568l-.15-.074C.006-.37 0-.38 0-.403v-.253c0-.031.019-.035.043-.023l.813.419C.973-.2 1-.14 1-.043zM.713.02q.01-.006.01-.016v-.007q0-.01-.01-.016L.397-.176v.349z" style="fill:url(#e);fill-rule:nonzero" transform="matrix(0 -777.56939 -777.56939 0 5264.864 1231.32)"/><path d="M0-30.944q.002-2.384-2.761-2.385h-3.928v13.34h3.928c1.843 0 2.761-.792 2.761-2.385zM15.473 4.477q-.002 4.181 2.091 10.075H2.385A22.3 22.3 0 0 1 .376 5.229V-5.437q.001-1.13-.835-2.048-1.004-1.09-2.551-1.089h-3.679v23.126h-19.697q3.638-2.966 3.554-7.192v-45.663q.084-4.227-3.554-7.193H.083q6.107 0 10.455 3.386 4.6 3.596 4.6 9.074v10.789q0 2.303-1.547 4.349-1.715 2.258-4.683 3.387 3.008 1.173 4.85 3.429 1.715 2.174 1.715 4.393z" style="fill:#868580;fill-rule:nonzero" transform="translate(1462.222 1516.185)scale(4.16667)"/><path d="M0 18.442-2.091-.541l-2.468 18.983zm18.859 20.825H2.174l-.794-7.901h-7.737l-1.212 7.901h-14.344l9.995-56.412q-.88-2.046-2.885-3.68h26.428q-2.052 1.673-2.927 3.68z" style="fill:#868580;fill-rule:nonzero" transform="translate(1652.841 1413.206)scale(4.16667)"/><path d="M0 45.707q-.127 4.226 3.555 7.192h-23.293q3.678-2.966 3.554-7.192V0q.124-4.22-3.554-7.192H3.555Q-.127-4.219 0 0z" style="fill:#868580;fill-rule:nonzero" transform="translate(1839.804 1356.405)scale(4.16667)"/><path d="M0 34.078v13.007h-35.335q3.678-2.967 3.554-7.193V-5.815q.124-4.219-3.554-7.192h23.293q-3.39 2.762-3.555 6.567v40.518z" style="fill:#868580;fill-rule:nonzero" transform="translate(2027.98 1380.632)scale(4.16667)"/><path d="M0-30.944q.001-2.384-2.761-2.385h-3.928v13.34h3.928c1.842 0 2.761-.792 2.761-2.385zM15.473 4.477q-.002 4.181 2.091 10.075H2.384A22.34 22.34 0 0 1 .376 5.229V-5.437q.001-1.13-.835-2.048-1.005-1.09-2.551-1.089h-3.679v23.126h-19.697q3.638-2.966 3.554-7.192v-45.663q.084-4.227-3.554-7.193H.083q6.107 0 10.455 3.386 4.6 3.596 4.6 9.074v10.789q0 2.303-1.547 4.349-1.715 2.258-4.683 3.387 3.008 1.173 4.85 3.429 1.715 2.174 1.715 4.393z" style="fill:#868580;fill-rule:nonzero" transform="translate(2252.569 1516.185)scale(4.16667)"/><path d="M0-35.045q-.96.714-.96 1.842v31.36q0 1.172.96 1.886c.641.446 1.45.665 2.426.665.947 0 1.741-.219 2.384-.665q.961-.713.961-1.886v-31.36q0-1.128-.961-1.842-.964-.71-2.384-.709-1.464 0-2.426.709M-11.833 9.66Q-17.48 5.354-17.479-.836v-33.33q0-6.189 5.646-10.495 5.77-4.392 14.259-4.393 8.447 0 14.219 4.393 5.644 4.306 5.644 10.495v33.33q0 6.19-5.644 10.496-5.772 4.35-14.219 4.349-8.49 0-14.259-4.349" style="fill:#868580;fill-rule:nonzero" transform="translate(2424.712 1527.165)scale(4.16667)"/><path d="M0-61.554c-2.257 1.837-3.443 4.029-3.555 6.562v40.147c0 4.156-1.782 7.651-5.35 10.495Q-14.426 0-22.832 0q-8.447 0-14.216-4.35-5.69-4.306-5.688-10.495v-39.517q.124-4.225-3.555-7.192h20.156v45.707q0 1.166.963 1.881.96.669 2.34.669 1.462 0 2.427-.669.96-.715.96-1.881v-45.707z" style="fill:#868580;fill-rule:nonzero" transform="translate(2736.602 1583.095)scale(4.16667)"/><path d="M0-60.048v15.724q-2.97-3.642-7.193-3.557h-3.848v40.688Q-11.126-2.966-7.486 0h-23.249q3.636-2.966 3.552-7.193v-40.688h-4.139q-4.223-.085-7.192 3.557v-15.724z" style="fill:#868580;fill-rule:nonzero" transform="translate(2923.21 1576.82)scale(4.16667)"/><path d="M0-36.502v11.791h10.286L7.065-13.296H0v12.46h13.675l3.22 12.631h-36.633q3.678-2.967 3.596-7.193v-45.707q.082-4.218-3.596-7.192h36.882l-3.386 11.795z" style="fill:#868580;fill-rule:nonzero" transform="translate(3031.585 1527.674)scale(4.16667)"/><path d="M0-60.048q-1.463 1.167-2.3 2.507L-14.887 0h-14.927L-42.36-57.287c-.558-.976-1.368-1.9-2.426-2.761h17.981l5.562 34.287 4.766-34.287z" style="fill:#868580;fill-rule:nonzero" transform="translate(3404.282 1576.82)scale(4.16667)"/><path d="M0-35.045q-.96.714-.96 1.842v31.36q0 1.172.96 1.886c.642.446 1.45.665 2.426.665.947 0 1.742-.219 2.385-.665q.96-.713.96-1.886v-31.36q0-1.128-.96-1.842-.964-.71-2.385-.709-1.463 0-2.426.709M-11.832 9.66q-5.647-4.306-5.647-10.496v-33.33q0-6.189 5.647-10.495 5.77-4.392 14.258-4.393 8.447 0 14.22 4.393 5.643 4.306 5.643 10.495v33.33q0 6.19-5.643 10.496-5.773 4.35-14.22 4.349-8.489 0-14.258-4.349" style="fill:#868580;fill-rule:nonzero" transform="translate(3503.248 1527.165)scale(4.16667)"/><path d="M0-60.175q-1.671 1.338-2.551 2.971l-.628 1.422-.376.875-12.46 28.941v18.773Q-16.099-2.966-12.462 0h-23.25q3.177-2.592 3.514-6.064v-19.902l-11.876-28.688-.21-.586-.961-2.301q-.878-1.419-2.385-2.634h17.941l6.606 20.073 5.854-20.073z" style="fill:#868580;fill-rule:nonzero" transform="translate(3820.709 1576.82)scale(4.16667)"/><path d="M0 18.442-2.091-.541l-2.468 18.983zm18.859 20.825H2.175l-.794-7.901h-7.737l-1.212 7.901h-14.344l9.995-56.412q-.88-2.046-2.886-3.68h26.428q-2.05 1.673-2.927 3.68z" style="fill:#868580;fill-rule:nonzero" transform="translate(3938.152 1413.206)scale(4.16667)"/><path d="M0-.126h19.362v30.109H9.995L8.196 26.68q-1.17 1.627-4.599 3.176-3.68 1.633-6.984 1.632-8.322 0-13.591-4.515-4.808-4.141-4.808-9.62v-34.832q0-5.059 5.646-9.41 6.189-4.725 14.845-4.725 7.192-.001 12.753 3.43c3.373 2.061 5.646 4.559 6.816 7.486h3.639q-2.3 3.675-2.969 8.321v4.892H2.26v-8.283q0-1.166-1.004-1.88-1.005-.67-2.551-.67-1.506 0-2.51.67-1.087.713-1.087 1.88v31.029q0 1.213 1.087 2.051c.753.587 1.742.875 2.969.875 1.339 0 2.369-.288 3.096-.875q.96-.792.96-2.051V9.324H0z" style="fill:#868580;fill-rule:nonzero" transform="translate(4133.64 1454.334)scale(4.16667)"/><path d="M0-36.502v11.791h10.286L7.065-13.296H0v12.46h13.675l3.22 12.631h-36.633q3.678-2.967 3.596-7.193v-45.707q.082-4.218-3.596-7.192h36.882l-3.386 11.795z" style="fill:#868580;fill-rule:nonzero" transform="translate(4333.327 1527.674)scale(4.16667)"/><path d="M0-.123c1.925 1.646 3.526 3.47 4.811 5.478q3.051 4.809 3.051 9.954 0 .918-.208 2.047-.544 3.596-2.843 6.563-3.181 4.101-8.74 6.024-4.309 1.504-9.494 1.505-6.147-.001-10.83-1.505a24 24 0 0 1-3.387-1.382q-5.017-2.592-6.564-5.019h-3.472q3.554-5.681 3.472-13.799h14.551v5.189q0 1.419.963 2.424 1.463 1.549 4.431 1.548 3.178 0 4.35-1.548c.418-.613.628-1.396.628-2.34 0-2.232-1.074-4.209-3.221-5.942q-1.674-1.334-10.288-6.23a26.7 26.7 0 0 1-4.349-2.967 7 7 0 0 1-.501-.42c-2.591-2.283-4.489-4.851-5.687-7.695a27 27 0 0 1-.794-2.424 18.8 18.8 0 0 1-.628-4.809c0-.949.099-1.894.293-2.843a14.8 14.8 0 0 1 1.129-3.22q1.84-3.724 5.687-6.231 2.175-1.423 4.85-2.34 4.476-1.465 9.87-1.466 4.766.001 8.947 1.466 7.027 2.546 9.66 6.523h3.262q-3.342 5.308-3.262 12.92H-8.697v-4.936q0-1.711-1.505-2.716-1.215-.754-2.718-.753-1.672 0-3.012.753-1.712 1.004-1.713 2.799-.001 3.138 1.087 4.853c.948 1.448 4.516 3.71 10.704 6.772a1577 1577 0 0 0 3.262 1.593S-1.728-1.575 0-.123" style="fill:#868580;fill-rule:nonzero" transform="translate(4587.876 1454.5)scale(4.16667)"/><path d="M0-.123c1.926 1.646 3.526 3.47 4.811 5.478q3.052 4.809 3.051 9.954 0 .918-.208 2.047-.543 3.596-2.843 6.563-3.18 4.101-8.74 6.024-4.308 1.504-9.494 1.505-6.147-.001-10.83-1.505a24 24 0 0 1-3.387-1.382q-5.017-2.592-6.564-5.019h-3.472q3.554-5.681 3.472-13.799h14.552v5.189q-.001 1.419.962 2.424 1.462 1.549 4.432 1.548 3.177 0 4.349-1.548c.418-.613.628-1.396.628-2.34 0-2.232-1.074-4.209-3.221-5.942q-1.673-1.334-10.288-6.23a26.7 26.7 0 0 1-4.349-2.967 7 7 0 0 1-.501-.42c-2.591-2.283-4.488-4.851-5.687-7.695a27 27 0 0 1-.794-2.424 18.8 18.8 0 0 1-.628-4.809c0-.949.099-1.894.293-2.843a14.8 14.8 0 0 1 1.129-3.22q1.84-3.724 5.687-6.231 2.175-1.423 4.85-2.34 4.476-1.465 9.871-1.466 4.765.001 8.946 1.466 7.027 2.546 9.661 6.523h3.261q-3.342 5.308-3.261 12.92H-8.697v-4.936q0-1.711-1.505-2.716-1.214-.754-2.717-.753-1.674 0-3.013.753-1.712 1.004-1.713 2.799 0 3.138 1.087 4.853c.948 1.448 4.516 3.71 10.704 6.772q3.262 1.595 3.262 1.593S-1.728-1.575 0-.123" style="fill:#868580;fill-rule:nonzero" transform="translate(4896.803 1454.5)scale(4.16667)"/><path d="M0 18.442-2.091-.541l-2.468 18.983zm18.859 20.825H2.175l-.794-7.901h-7.737l-1.212 7.901h-14.344l9.995-56.412q-.88-2.046-2.886-3.68h26.428q-2.05 1.673-2.927 3.68z" style="fill:#868580;fill-rule:nonzero" transform="translate(5051.528 1413.206)scale(4.16667)"/><path d="M0 16.617-22.873.001h28.27l8.738-26.89L22.874.001h28.272L28.271 16.617l8.738 26.889-22.874-16.617-22.871 16.617z" style="fill:#f17b21;fill-rule:nonzero" transform="translate(5236.11 1401.568)scale(4.16667)"/><path d="m0-58.118 7.213 22.199h23.342l-18.884 13.72L18.884 0 0-13.72-18.884 0l7.213-22.199-18.884-13.72h23.342z" style="fill:#b9202a;fill-rule:nonzero" transform="translate(5295.009 1559.96)scale(4.16667)"/><path d="M0 16.617-22.874.001H5.397l8.737-26.89 8.74 26.89h28.271L28.271 16.617l8.737 26.889-22.874-16.617-22.871 16.617z" style="fill:#f17b21;fill-rule:nonzero" transform="translate(5579.4 1401.568)scale(4.16667)"/><path d="m0-58.118 7.213 22.199h23.342l-18.884 13.72L18.884 0 0-13.72-18.885 0l7.214-22.199-18.885-13.72h23.342z" style="fill:#b9202a;fill-rule:nonzero" transform="translate(5638.3 1559.96)scale(4.16667)"/><path d="M0 16.617-22.874.001H5.397l8.737-26.89 8.74 26.89h28.271L28.271 16.617l8.737 26.889-22.874-16.617-22.871 16.617z" style="fill:#f17b21;fill-rule:nonzero" transform="translate(757.87 1401.568)scale(4.16667)"/><path d="m0-58.118 7.213 22.199h23.342l-18.884 13.72L18.884 0 0-13.72-18.884 0l7.213-22.199-18.884-13.72h23.342z" style="fill:#b9202a;fill-rule:nonzero" transform="translate(816.77 1559.96)scale(4.16667)"/><path d="M0 16.617-22.874.001H5.397l8.737-26.89 8.74 26.89h28.271L28.271 16.617l8.737 26.889-22.874-16.617-22.871 16.617z" style="fill:#f17b21;fill-rule:nonzero" transform="translate(1101.159 1401.568)scale(4.16667)"/><path d="m0-58.118 7.213 22.199h23.342l-18.884 13.72L18.884 0 0-13.72-18.884 0l7.213-22.199-18.884-13.72h23.342z" style="fill:#b9202a;fill-rule:nonzero" transform="translate(1160.056 1559.96)scale(4.16667)"/><path d="M.62.603C.431.571.231.478.127.312-.044.042-.025-.311.08-.605v-.001l.178-.006s-.142.529.063.876C.425.43.626.538.814.57q.09.015.186.012C.923.598.828.612.737.612A1 1 0 0 1 .62.603" style="fill:url(#f);fill-rule:nonzero" transform="matrix(1075.88993 0 0 -1075.88993 35.562 665.951)"/><path d="M0-47.822h-57.366c-36.371-16.551-76.241-25.676-116.29-24.322-41.685 1.409-82.022 13.457-110.439 45.273-17.746 19.869-30.249 44.016-39.801 68.728-.487 1.252-7.122 22.013-7.4 22.013-1.021-.069-2.041-.162-3.062-.254-.475-.044-.082-18.813.015-20.593 2.501-45.729 26.184-89.598 62.776-117.073 42.167-31.659 97.952-37.642 148.56-28.17 21.571 4.037 42.842 11.111 63.104 19.517C-34.97-72.359-1.66-47.822 0-47.822" style="fill:#868580;fill-rule:nonzero" transform="translate(1743.66 551.837)scale(4.16667)"/><path d="M.845.271C.84.266.757.111.579.009a.82.82 0 0 0-.493-.088Q.043-.074 0-.067c.409-.125.847.008 1 .338z" style="fill:url(#g);fill-rule:nonzero" transform="matrix(883.4364 0 0 -883.4364 1371.106 1889.912)"/><path d="M0-170.284c-2.187 1.794-15.448 30.935-47.436 59.348C-94.39-75.127-148.063-68.28-204.537-76.344c-55.067-7.862-104.287-30.378-149.464-62.341h-105.988a60 60 0 0 0 1.483 1.59c39.31 40.433 84.253 73.025 135.806 96.017C-261.313-13.7-197.51 0-130.473-13.553-52.169-29.384-.655-75.063 19.433-153.693c1.32-5.169 1.943-10.562 2.873-16.591z" style="fill:#868580;fill-rule:nonzero" transform="translate(2360.845 2360.22)scale(4.16667)"/><defs><linearGradient id="a" x1="0" x2="1" y1="0" y2="0" gradientTransform="matrix(1 0 0 -1 0 .005)" gradientUnits="userSpaceOnUse"><stop offset="0" style="stop-color:#b9202a;stop-opacity:1"/><stop offset="1" style="stop-color:#f17b21;stop-opacity:1"/></linearGradient><linearGradient id="b" x1="0" x2="1" y1="0" y2="0" gradientTransform="matrix(1 0 0 -1 0 .005)" gradientUnits="userSpaceOnUse"><stop offset="0" style="stop-color:#b9202a;stop-opacity:1"/><stop offset="1" style="stop-color:#f17b21;stop-opacity:1"/></linearGradient><linearGradient id="c" x1="0" x2="1" y1="0" y2="0" gradientTransform="scale(1 -1)" gradientUnits="userSpaceOnUse"><stop offset="0" style="stop-color:#b9202a;stop-opacity:1"/><stop offset="1" style="stop-color:#f17b21;stop-opacity:1"/></linearGradient><linearGradient id="d" x1="0" x2="1" y1="0" y2="0" gradientTransform="scale(1 -1)" gradientUnits="userSpaceOnUse"><stop offset="0" style="stop-color:#b9202a;stop-opacity:1"/><stop offset="1" style="stop-color:#f17b21;stop-opacity:1"/></linearGradient><linearGradient id="e" x1="0" x2="1" y1="0" y2="0" gradientTransform="scale(1 -1)" gradientUnits="userSpaceOnUse"><stop offset="0" style="stop-color:#b9202a;stop-opacity:1"/><stop offset="1" style="stop-color:#f17b21;stop-opacity:1"/></linearGradient><linearGradient id="f" x1="0" x2="1" y1="0" y2="0" gradientTransform="scale(1 -1)" gradientUnits="userSpaceOnUse"><stop offset="0" style="stop-color:#b9202a;stop-opacity:1"/><stop offset="1" style="stop-color:#f17b21;stop-opacity:1"/></linearGradient><linearGradient id="g" x1="0" x2="1" y1="0" y2="0" gradientTransform="matrix(1 0 0 -1 0 .079)" gradientUnits="userSpaceOnUse"><stop offset="0" style="stop-color:#b9202a;stop-opacity:1"/><stop offset="1" style="stop-color:#f17b21;stop-opacity:1"/></linearGradient></defs></svg>