<?xml version="1.0" encoding="UTF-8" standalone="no"?>
<svg
   xmlns:dc="http://purl.org/dc/elements/1.1/"
   xmlns:cc="http://creativecommons.org/ns#"
   xmlns:rdf="http://www.w3.org/1999/02/22-rdf-syntax-ns#"
   xmlns:svg="http://www.w3.org/2000/svg"
   xmlns="http://www.w3.org/2000/svg"
   xmlns:sodipodi="http://sodipodi.sourceforge.net/DTD/sodipodi-0.dtd"
   xmlns:inkscape="http://www.inkscape.org/namespaces/inkscape"
   version="1.1"
   id="svg1443"
   xml:space="preserve"
   width="145.04291"
   height="51.350086"
   viewBox="0 0 145.04291 51.350085"
   sodipodi:docname="logo couleur.pdf"
   inkscape:version="1.0.2 (e86c8708, 2021-01-15)"><metadata
     id="metadata1449"><rdf:RDF><cc:Work
         rdf:about=""><dc:format>image/svg+xml</dc:format><dc:type
           rdf:resource="http://purl.org/dc/dcmitype/StillImage" /><dc:title></dc:title></cc:Work></rdf:RDF></metadata><defs
     id="defs1447"><clipPath
       clipPathUnits="userSpaceOnUse"
       id="clipPath1459"><path
         d="M 0,841.89 H 595.28 V 0 H 0 Z"
         id="path1457" /></clipPath></defs><sodipodi:namedview
     pagecolor="#ffffff"
     bordercolor="#666666"
     borderopacity="1"
     objecttolerance="10"
     gridtolerance="10"
     guidetolerance="10"
     inkscape:pageopacity="0"
     inkscape:pageshadow="2"
     inkscape:window-width="1810"
     inkscape:window-height="1116"
     id="namedview1445"
     showgrid="false"
     fit-margin-top="0"
     fit-margin-left="0"
     fit-margin-right="0"
     fit-margin-bottom="0"
     inkscape:zoom="0.89797953"
     inkscape:cx="71.606897"
     inkscape:cy="24.419199"
     inkscape:window-x="0"
     inkscape:window-y="25"
     inkscape:window-maximized="0"
     inkscape:current-layer="g1451" /><g
     id="g1451"
     inkscape:groupmode="layer"
     inkscape:label="logo couleur"
     transform="matrix(1.3333333,0,0,-1.3333333,-325.24644,585.67919)"><g
       id="g1453"><g
         id="g1455"
         clip-path="url(#clipPath1459)"><g
           id="g1461"
           transform="translate(289.1108,412.4678)"><path
             d="M 0,0 C -0.001,0.779 -0.135,1.361 -0.402,1.748 -0.67,2.133 -1.08,2.326 -1.632,2.324 -1.945,2.324 -2.26,2.256 -2.577,2.121 -2.895,1.984 -3.197,1.809 -3.487,1.586 l 0.005,-3.66 c 0.31,-0.139 0.576,-0.233 0.797,-0.283 0.223,-0.049 0.476,-0.077 0.758,-0.077 0.606,0.002 1.08,0.207 1.42,0.616 C -0.168,-1.408 0.001,-0.801 0,0 M 1.119,0.035 C 1.12,-0.49 1.044,-0.971 0.894,-1.404 0.745,-1.838 0.533,-2.205 0.259,-2.508 0.005,-2.795 -0.295,-3.016 -0.64,-3.172 -0.986,-3.33 -1.352,-3.408 -1.736,-3.408 c -0.336,0 -0.641,0.035 -0.913,0.107 -0.273,0.074 -0.55,0.188 -0.832,0.342 l 0.003,-2.701 -1.092,-0.002 -0.011,8.844 1.092,0.002 10e-4,-0.678 c 0.29,0.244 0.615,0.449 0.975,0.613 0.361,0.164 0.746,0.246 1.155,0.248 0.78,0 1.387,-0.293 1.822,-0.881 C 0.898,1.898 1.118,1.08 1.119,0.035"
             style="fill:#e36c12;fill-opacity:1;fill-rule:nonzero;stroke:none"
             id="path1463" /></g><g
           id="g1465"
           transform="translate(295.9502,414.4697)"><path
             d="M 0,0 H -0.058 C -0.219,0.039 -0.377,0.068 -0.53,0.088 -0.681,0.104 -0.862,0.115 -1.07,0.115 -1.405,0.113 -1.729,0.039 -2.042,-0.109 -2.354,-0.26 -2.654,-0.451 -2.944,-0.687 l 0.006,-4.586 -1.093,-0.002 -0.008,6.464 1.093,0.002 0.001,-0.955 c 0.433,0.348 0.812,0.594 1.143,0.741 0.329,0.144 0.665,0.216 1.008,0.216 0.188,0 0.326,-0.004 0.411,-0.013 0.086,-0.008 0.213,-0.028 0.382,-0.055 z"
             style="fill:#e36c12;fill-opacity:1;fill-rule:nonzero;stroke:none"
             id="path1467" /></g><g
           id="g1469"
           transform="translate(301.3701,412.4346)"><path
             d="m 0,0 c -0.001,0.834 -0.167,1.453 -0.496,1.857 -0.328,0.407 -0.785,0.608 -1.367,0.606 -0.593,0 -1.053,-0.201 -1.378,-0.609 -0.327,-0.405 -0.488,-1.026 -0.488,-1.858 0.002,-0.807 0.166,-1.416 0.495,-1.834 0.329,-0.414 0.788,-0.623 1.377,-0.621 0.579,0 1.034,0.207 1.362,0.619 C -0.165,-1.426 0.001,-0.812 0,0 M 1.119,0.002 C 1.12,-1.051 0.851,-1.883 0.312,-2.494 -0.229,-3.104 -0.95,-3.41 -1.856,-3.412 c -0.915,-0.002 -1.643,0.303 -2.183,0.912 -0.537,0.611 -0.807,1.441 -0.809,2.494 -0.001,1.055 0.267,1.889 0.804,2.5 0.538,0.613 1.264,0.92 2.179,0.92 C -0.959,3.416 -0.236,3.111 0.306,2.5 0.846,1.889 1.118,1.057 1.119,0.002"
             style="fill:#e36c12;fill-opacity:1;fill-rule:nonzero;stroke:none"
             id="path1471" /></g><g
           id="g1473"
           transform="translate(313.6191,409.2217)"><path
             d="M 0,0 -1.095,-0.002 -1.1,3.676 C -1.1,3.953 -1.114,4.223 -1.138,4.48 -1.162,4.738 -1.216,4.947 -1.298,5.1 -1.387,5.264 -1.514,5.391 -1.682,5.475 -1.847,5.559 -2.086,5.602 -2.398,5.602 -2.705,5.6 -3.008,5.525 -3.313,5.371 -3.617,5.219 -3.922,5.023 -4.228,4.789 -4.215,4.701 -4.207,4.598 -4.197,4.48 -4.189,4.361 -4.185,4.244 -4.185,4.131 l 0.005,-4.137 -1.091,-0.002 -0.005,3.68 C -5.277,3.955 -5.293,4.227 -5.315,4.482 -5.342,4.74 -5.395,4.945 -5.477,5.1 -5.564,5.266 -5.693,5.389 -5.859,5.473 -6.024,5.555 -6.264,5.596 -6.577,5.596 -6.873,5.596 -7.173,5.521 -7.47,5.375 -7.771,5.229 -8.067,5.041 -8.363,4.812 l 0.006,-4.824 h -1.092 l -0.008,6.465 1.092,0.002 V 5.736 c 0.338,0.284 0.679,0.504 1.016,0.662 0.337,0.159 0.697,0.239 1.079,0.239 0.442,0.002 0.815,-0.092 1.122,-0.276 0.308,-0.185 0.538,-0.441 0.688,-0.769 0.439,0.371 0.843,0.638 1.206,0.803 0.363,0.164 0.75,0.248 1.164,0.248 0.713,0 1.235,-0.215 1.572,-0.645 0.34,-0.428 0.512,-1.029 0.512,-1.803 z"
             style="fill:#e36c12;fill-opacity:1;fill-rule:nonzero;stroke:none"
             id="path1475" /></g><g
           id="g1477"
           transform="translate(320.0859,412.458)"><path
             d="m 0,0 c -0.001,0.834 -0.164,1.453 -0.496,1.857 -0.325,0.407 -0.783,0.608 -1.368,0.606 -0.588,0 -1.048,-0.201 -1.377,-0.609 -0.323,-0.405 -0.488,-1.024 -0.487,-1.858 0.002,-0.805 0.167,-1.416 0.496,-1.834 0.33,-0.414 0.789,-0.621 1.375,-0.621 0.581,0 1.037,0.207 1.366,0.619 C -0.162,-1.426 0.002,-0.812 0,0 m 1.12,0.002 c 10e-4,-1.053 -0.268,-1.885 -0.808,-2.496 -0.539,-0.61 -1.259,-0.916 -2.168,-0.918 -0.914,0 -1.638,0.305 -2.179,0.912 -0.539,0.611 -0.811,1.441 -0.813,2.494 0,1.055 0.269,1.889 0.807,2.5 0.539,0.613 1.263,0.92 2.176,0.92 C -0.956,3.416 -0.233,3.111 0.307,2.5 0.848,1.889 1.119,1.057 1.12,0.002"
             style="fill:#e36c12;fill-opacity:1;fill-rule:nonzero;stroke:none"
             id="path1479" /></g><g
           id="g1481"
           transform="translate(326.2422,409.29)"><path
             d="m 0,0 c -0.205,-0.053 -0.43,-0.096 -0.668,-0.131 -0.242,-0.033 -0.455,-0.053 -0.644,-0.053 -0.66,0 -1.163,0.178 -1.505,0.532 -0.345,0.353 -0.515,0.923 -0.515,1.707 L -3.337,5.496 -4.07,5.494 -4.071,6.408 h 0.733 L -3.34,8.273 -2.248,8.275 -2.246,6.41 -0.008,6.412 -0.006,5.5 -2.245,5.498 -2.24,2.547 c 0,-0.34 0.007,-0.606 0.022,-0.797 0.017,-0.193 0.07,-0.371 0.164,-0.535 0.083,-0.156 0.2,-0.27 0.347,-0.34 0.146,-0.072 0.374,-0.107 0.68,-0.107 0.173,0 0.361,0.025 0.552,0.078 0.192,0.052 0.331,0.093 0.415,0.129 h 0.059 z"
             style="fill:#e36c12;fill-opacity:1;fill-rule:nonzero;stroke:none"
             id="path1483" /></g><g
           id="g1485"
           transform="translate(328.6475,409.2393)"><path
             d="m 0,0 h -1.093 l -0.008,6.465 1.092,0.002 z M 0.056,7.547 -1.167,7.545 -1.169,8.676 0.054,8.678 Z"
             style="fill:#e36c12;fill-opacity:1;fill-rule:nonzero;stroke:none"
             id="path1487" /></g><g
           id="g1489"
           transform="translate(335.1992,412.4775)"><path
             d="m 0,0 c -0.002,0.834 -0.166,1.453 -0.496,1.857 -0.33,0.407 -0.787,0.606 -1.37,0.606 -0.591,0 -1.05,-0.203 -1.374,-0.609 -0.326,-0.405 -0.49,-1.026 -0.49,-1.858 10e-4,-0.807 0.167,-1.416 0.496,-1.834 0.329,-0.416 0.786,-0.623 1.374,-0.621 0.581,0 1.035,0.207 1.368,0.619 C -0.166,-1.426 0,-0.812 0,0 m 1.117,0.002 c 0,-1.053 -0.267,-1.885 -0.805,-2.496 -0.541,-0.611 -1.261,-0.916 -2.171,-0.918 -0.914,-0.002 -1.641,0.303 -2.178,0.912 -0.538,0.609 -0.81,1.441 -0.811,2.494 -0.002,1.055 0.268,1.887 0.805,2.5 0.535,0.613 1.261,0.92 2.176,0.92 C -0.959,3.416 -0.236,3.111 0.306,2.5 0.845,1.889 1.115,1.057 1.117,0.002"
             style="fill:#e36c12;fill-opacity:1;fill-rule:nonzero;stroke:none"
             id="path1491" /></g><g
           id="g1493"
           transform="translate(343.3965,409.2588)"><path
             d="m 0,0 -1.092,-0.002 -0.005,3.678 c -0.001,0.297 -0.018,0.576 -0.053,0.836 -0.035,0.261 -0.1,0.465 -0.19,0.609 -0.097,0.164 -0.235,0.283 -0.418,0.361 -0.179,0.082 -0.413,0.12 -0.703,0.12 -0.295,0 -0.603,-0.075 -0.927,-0.221 C -3.709,5.234 -4.018,5.047 -4.311,4.818 L -4.305,-0.006 -5.4,-0.008 -5.408,6.459 -4.312,6.461 V 5.742 c 0.337,0.283 0.688,0.504 1.048,0.662 0.36,0.158 0.731,0.239 1.112,0.239 0.698,0.002 1.228,-0.207 1.596,-0.629 0.367,-0.42 0.55,-1.026 0.55,-1.817 z"
             style="fill:#e36c12;fill-opacity:1;fill-rule:nonzero;stroke:none"
             id="path1495" /></g><g
           id="g1497"
           transform="translate(263.1938,434.3384)"><path
             d="m 0,0 c 0.003,-2.72 -2.201,-4.929 -4.921,-4.932 -2.72,-0.004 -4.929,2.2 -4.932,4.919 -0.003,2.722 2.2,4.931 4.92,4.934 C -2.213,4.924 -0.004,2.722 0,0"
             style="fill:#004380;fill-opacity:1;fill-rule:nonzero;stroke:none"
             id="path1499" /></g><g
           id="g1501"
           transform="translate(263.6699,421.8799)"><path
             d="m 0,0 c -5.13,-1.519 -8.765,-4.535 -8.113,-6.73 0.654,-2.196 5.339,-2.741 10.471,-1.221 5.131,1.523 8.762,4.533 8.112,6.731 C 9.819,0.974 5.131,1.522 0,0 m -14.721,-21.086 c -4.29,0.016 -6.196,3.449 -4.253,7.666 l 5.058,10.973 c 1.943,4.217 6.998,7.621 11.291,7.602 L 8.545,5.109 c 4.293,-0.018 6.198,-3.451 4.256,-7.666 L 7.742,-13.527 C 5.798,-17.746 0.743,-21.15 -3.549,-21.133"
             style="fill:#e36c12;fill-opacity:1;fill-rule:nonzero;stroke:none"
             id="path1503" /></g><g
           id="g1505"
           transform="translate(289.0195,420.3491)"><path
             d="m 0,0 c -0.224,-0.059 -0.46,-0.104 -0.713,-0.137 -0.25,-0.033 -0.557,-0.05 -0.92,-0.05 -0.81,0 -1.414,0.162 -1.81,0.491 -0.397,0.326 -0.595,0.889 -0.596,1.685 l -0.004,3.04 -0.861,-0.001 -0.002,1.414 0.861,10e-4 -0.002,1.865 2.095,0.003 0.003,-1.864 1.941,0.002 0.001,-1.415 -1.941,-0.002 0.003,-2.308 c 0,-0.229 0.002,-0.428 0.008,-0.598 0.003,-0.171 0.034,-0.324 0.092,-0.458 0.054,-0.136 0.149,-0.243 0.285,-0.321 0.136,-0.08 0.335,-0.119 0.597,-0.118 0.108,0 0.248,0.023 0.423,0.068 0.174,0.044 0.297,0.087 0.366,0.125 h 0.173 z"
             style="fill:#004380;fill-opacity:1;fill-rule:nonzero;stroke:none"
             id="path1507" /></g><g
           id="g1509"
           transform="translate(293.6396,420.1187)"><path
             d="m 0,0 c -0.565,0 -1.083,0.066 -1.55,0.199 -0.47,0.137 -0.875,0.346 -1.222,0.627 -0.342,0.281 -0.609,0.637 -0.797,1.066 -0.189,0.429 -0.285,0.931 -0.285,1.506 0,0.607 0.1,1.132 0.301,1.573 0.201,0.44 0.484,0.806 0.844,1.097 0.35,0.274 0.754,0.476 1.212,0.603 0.458,0.129 0.932,0.194 1.425,0.195 0.442,0 0.851,-0.048 1.223,-0.144 C 1.526,6.625 1.874,6.5 2.196,6.347 L 2.199,4.567 1.905,4.566 C 1.826,4.636 1.729,4.717 1.616,4.808 1.502,4.901 1.362,4.992 1.198,5.08 1.041,5.165 0.867,5.235 0.68,5.291 0.491,5.346 0.272,5.373 0.023,5.373 -0.53,5.372 -0.954,5.195 -1.25,4.841 -1.547,4.488 -1.695,4.007 -1.694,3.401 -1.693,2.775 -1.542,2.3 -1.235,1.977 -0.93,1.651 -0.497,1.49 0.062,1.491 0.323,1.491 0.56,1.522 0.767,1.58 0.976,1.64 1.151,1.71 1.288,1.79 1.417,1.868 1.533,1.947 1.633,2.032 1.732,2.115 1.824,2.197 1.908,2.278 L 2.201,2.279 2.204,0.506 C 1.876,0.351 1.537,0.228 1.18,0.137 0.824,0.045 0.432,0.002 0,0"
             style="fill:#004380;fill-opacity:1;fill-rule:nonzero;stroke:none"
             id="path1511" /></g><g
           id="g1513"
           transform="translate(303.7676,420.311)"><path
             d="M 0,0 -2.096,-0.002 -2.1,3.226 C -2.101,3.489 -2.113,3.75 -2.142,4.01 -2.17,4.272 -2.215,4.462 -2.281,4.586 -2.357,4.73 -2.469,4.834 -2.617,4.899 c -0.147,0.066 -0.355,0.1 -0.62,0.1 C -3.426,4.998 -3.618,4.966 -3.811,4.903 -4.004,4.843 -4.215,4.743 -4.441,4.607 l 0.006,-4.612 -2.095,-0.003 -0.012,9.012 2.096,0.003 0.004,-3.225 c 0.37,0.291 0.724,0.512 1.064,0.668 0.34,0.154 0.72,0.232 1.134,0.233 0.701,0.001 1.249,-0.204 1.644,-0.612 0.397,-0.409 0.594,-1.022 0.595,-1.837 z"
             style="fill:#004380;fill-opacity:1;fill-rule:nonzero;stroke:none"
             id="path1515" /></g><g
           id="g1517"
           transform="translate(309.7441,421.9839)"><path
             d="M 0,0 C 0.137,0.167 0.237,0.367 0.305,0.601 0.369,0.836 0.404,1.159 0.403,1.574 0.402,1.957 0.367,2.278 0.297,2.536 0.229,2.796 0.132,3.004 0.01,3.158 c -0.123,0.158 -0.272,0.27 -0.446,0.335 -0.173,0.066 -0.36,0.1 -0.558,0.099 -0.199,0 -0.379,-0.027 -0.533,-0.081 C -1.683,3.456 -1.832,3.346 -1.975,3.184 -2.102,3.034 -2.201,2.827 -2.275,2.563 -2.35,2.299 -2.389,1.968 -2.389,1.57 c 10e-4,-0.357 0.035,-0.665 0.1,-0.924 0.068,-0.263 0.163,-0.472 0.291,-0.631 0.123,-0.15 0.269,-0.262 0.441,-0.33 0.17,-0.069 0.366,-0.104 0.586,-0.104 0.186,0 0.367,0.032 0.537,0.097 C -0.262,-0.258 -0.117,-0.15 0,0 M 2.563,1.587 C 2.564,0.518 2.254,-0.326 1.633,-0.944 1.012,-1.561 0.137,-1.871 -0.986,-1.873 c -1.126,-0.002 -2,0.309 -2.625,0.922 -0.622,0.618 -0.936,1.459 -0.937,2.529 -0.001,1.079 0.312,1.926 0.937,2.542 0.626,0.615 1.499,0.923 2.615,0.925 C 0.136,5.046 1.014,4.739 1.633,4.121 2.25,3.503 2.562,2.659 2.563,1.587"
             style="fill:#004380;fill-opacity:1;fill-rule:nonzero;stroke:none"
             id="path1519" /></g><g
           id="g1521"
           transform="translate(320.2812,420.3325)"><path
             d="M 0,0 -2.099,-0.003 -2.1,0.715 C -2.479,0.421 -2.836,0.196 -3.152,0.046 -3.475,-0.108 -3.85,-0.185 -4.296,-0.185 c -0.72,-0.001 -1.27,0.204 -1.66,0.619 -0.387,0.411 -0.58,1.022 -0.581,1.829 L -6.543,6.497 -4.445,6.5 -4.441,3.271 c 0,-0.328 0.011,-0.6 0.033,-0.82 0.02,-0.217 0.07,-0.397 0.148,-0.541 0.073,-0.142 0.183,-0.248 0.33,-0.312 0.151,-0.066 0.356,-0.098 0.62,-0.098 0.177,0 0.372,0.034 0.589,0.099 0.215,0.065 0.423,0.163 0.62,0.29 l -0.005,4.613 2.098,0.002 z"
             style="fill:#004380;fill-opacity:1;fill-rule:nonzero;stroke:none"
             id="path1523" /></g><g
           id="g1525"
           transform="translate(329.1582,420.3433)"><path
             d="m 0,0 -2.404,-0.002 -1.834,2.838 -0.573,-0.705 0.004,-2.137 -2.097,-0.002 -0.012,9.012 2.098,0.002 0.006,-5.366 2.226,2.862 2.41,0.003 -2.33,-2.806 z"
             style="fill:#004380;fill-opacity:1;fill-rule:nonzero;stroke:none"
             id="path1527" /></g><g
           id="g1529"
           transform="translate(334.8281,423.6475)"><path
             d="M 0,0 C 0,0.58 -0.101,1.025 -0.295,1.338 -0.49,1.649 -0.841,1.806 -1.343,1.806 -1.536,1.805 -1.738,1.776 -1.943,1.714 -2.152,1.655 -2.348,1.568 -2.535,1.457 l 0.004,-3.268 c 0.149,-0.055 0.291,-0.09 0.424,-0.11 0.136,-0.019 0.295,-0.028 0.484,-0.028 0.546,0.001 0.955,0.164 1.223,0.488 C -0.131,-1.138 0,-0.648 0,0 m 2.159,0.047 c 0.001,-1.024 -0.28,-1.858 -0.844,-2.504 -0.563,-0.645 -1.268,-0.968 -2.11,-0.97 -0.363,0 -0.68,0.039 -0.954,0.115 -0.274,0.078 -0.534,0.189 -0.78,0.336 L -2.617,-3.3 -4.627,-3.302 -4.638,5.709 -2.541,5.712 -2.537,2.53 c 0.32,0.253 0.647,0.461 0.978,0.619 0.333,0.159 0.717,0.238 1.155,0.239 C 0.418,3.389 1.05,3.093 1.492,2.501 1.937,1.908 2.158,1.09 2.159,0.047"
             style="fill:#004380;fill-opacity:1;fill-rule:nonzero;stroke:none"
             id="path1531" /></g><g
           id="g1533"
           transform="translate(342.4199,422.0562)"><path
             d="M 0,0 -0.002,1.352 C -0.282,1.327 -0.584,1.296 -0.91,1.255 -1.236,1.213 -1.482,1.166 -1.651,1.112 -1.858,1.047 -2.017,0.951 -2.125,0.826 -2.236,0.701 -2.289,0.536 -2.289,0.333 c 0.001,-0.135 0.01,-0.246 0.035,-0.33 0.024,-0.085 0.082,-0.165 0.172,-0.243 0.088,-0.077 0.195,-0.133 0.317,-0.17 0.121,-0.036 0.315,-0.053 0.577,-0.053 0.205,0 0.415,0.042 0.626,0.127 C -0.346,-0.25 -0.161,-0.139 0,0 m 0.001,-1.006 c -0.11,-0.086 -0.251,-0.189 -0.416,-0.31 -0.164,-0.118 -0.319,-0.213 -0.465,-0.284 -0.205,-0.093 -0.417,-0.162 -0.634,-0.209 -0.222,-0.046 -0.462,-0.069 -0.722,-0.069 -0.617,-0.001 -1.131,0.189 -1.549,0.571 -0.412,0.381 -0.623,0.869 -0.623,1.463 -10e-4,0.475 0.101,0.865 0.313,1.165 0.212,0.302 0.511,0.54 0.898,0.715 0.387,0.174 0.864,0.297 1.433,0.372 0.57,0.074 1.16,0.129 1.772,0.164 V 2.607 C 0.007,2.968 -0.139,3.217 -0.432,3.355 -0.725,3.493 -1.156,3.561 -1.724,3.561 -2.066,3.56 -2.433,3.499 -2.82,3.376 -3.21,3.255 -3.486,3.161 -3.657,3.095 H -3.848 L -3.85,4.66 c 0.219,0.058 0.578,0.128 1.073,0.206 0.494,0.081 0.989,0.121 1.488,0.122 C -0.106,4.989 0.749,4.808 1.273,4.443 1.802,4.079 2.064,3.508 2.066,2.729 L 2.071,-1.693 0.002,-1.695 Z"
             style="fill:#004380;fill-opacity:1;fill-rule:nonzero;stroke:none"
             id="path1535" /></g><g
           id="g1537"
           transform="translate(348.5,420.3677)"><path
             d="M 0,0 -2.098,-0.003 -2.109,9.01 -0.012,9.012 Z"
             style="fill:#004380;fill-opacity:1;fill-rule:nonzero;stroke:none"
             id="path1539" /></g><g
           id="g1541"
           transform="translate(352.5488,420.3726)"><path
             d="M 0,0 -2.096,-0.002 -2.107,9.01 -0.012,9.013 Z"
             style="fill:#004380;fill-opacity:1;fill-rule:nonzero;stroke:none"
             id="path1543" /></g><g
           id="g1545"
           transform="translate(350.916,413.0596)"><path
             d="m 0,0 -0.213,-0.541 c -0.176,0.129 -0.387,0.193 -0.637,0.193 -0.218,0 -0.394,-0.097 -0.527,-0.293 -0.134,-0.193 -0.199,-0.447 -0.199,-0.761 0,-0.301 0.07,-0.541 0.211,-0.721 0.139,-0.18 0.315,-0.27 0.525,-0.268 0.233,0 0.438,0.118 0.617,0.352 L 0.129,-2.52 c -0.291,-0.287 -0.628,-0.431 -1.01,-0.431 -0.404,-0.002 -0.723,0.142 -0.957,0.433 -0.234,0.289 -0.351,0.668 -0.351,1.135 0,0.453 0.122,0.83 0.369,1.135 0.248,0.303 0.568,0.455 0.963,0.455 C -0.524,0.209 -0.239,0.139 0,0 m -2.922,-1.391 c 0.001,-0.562 0.201,-1.043 0.601,-1.441 0.399,-0.398 0.88,-0.598 1.442,-0.596 0.561,0 1.039,0.199 1.438,0.598 0.396,0.398 0.595,0.879 0.594,1.443 -0.001,0.563 -0.2,1.041 -0.598,1.438 -0.399,0.398 -0.878,0.595 -1.44,0.595 -0.564,0 -1.045,-0.201 -1.443,-0.599 C -2.725,-0.35 -2.922,-0.83 -2.922,-1.391 M -3.57,-1.393 c 0,0.743 0.26,1.375 0.784,1.899 0.524,0.525 1.158,0.787 1.9,0.789 0.742,0 1.376,-0.26 1.9,-0.783 0.523,-0.524 0.787,-1.155 0.787,-1.897 0.002,-0.742 -0.26,-1.377 -0.783,-1.902 -0.523,-0.526 -1.155,-0.787 -1.897,-0.789 -0.742,0 -1.377,0.26 -1.902,0.785 -0.525,0.523 -0.788,1.156 -0.789,1.898"
             style="fill:#e36c12;fill-opacity:1;fill-rule:nonzero;stroke:none"
             id="path1547" /></g></g></g></g></svg>
