<?xml version="1.0" encoding="UTF-8" standalone="no"?>
<!DOCTYPE svg PUBLIC "-//W3C//DTD SVG 1.1//EN" "http://www.w3.org/Graphics/SVG/1.1/DTD/svg11.dtd">
<svg width="100%" height="100%" viewBox="0 0 796 650" version="1.1" xmlns="http://www.w3.org/2000/svg" xmlns:xlink="http://www.w3.org/1999/xlink" xml:space="preserve" xmlns:serif="http://www.serif.com/" style="fill-rule:evenodd;clip-rule:evenodd;stroke-linejoin:round;stroke-miterlimit:2;">
    <g transform="matrix(4.16667,0,0,4.16667,0,0)">
        <g id="Logo">
            <g id="Default-logo" serif:id="Default logo">
                <path id="Fond-cadre" serif:id="Fond cadre" d="M86.483,60.444L89.517,67.076C89.517,67.076 90.842,69.873 90.987,71.125C91.065,71.793 91.145,72.674 90.885,73.242C90.588,73.893 89.988,74.64 89.354,75.137C88.046,76.163 83.64,77.564 83.64,77.564L78.794,79.157L50.041,89.434C48.599,89.944 47.101,90.087 45.574,89.86C44.047,89.604 42.549,89.011 41.136,88.104C39.751,87.198 38.45,85.979 37.404,84.507C36.33,83.036 35.51,81.337 35.001,79.468L19.197,22.217C18.857,20.942 18.829,19.782 19.084,18.79C19.338,17.799 19.847,16.979 20.582,16.327C21.289,15.703 22.222,15.28 23.296,15.053C24.371,14.827 25.586,14.827 26.915,15.08L64.121,21.735C64.883,21.877 65.675,22.16 66.438,22.614C67.231,23.037 67.994,23.576 68.7,24.227C69.436,24.878 70.114,25.615 70.708,26.408C71.301,27.172 71.81,28.022 72.206,28.899L86.483,60.444Z" style="fill:rgb(255,0,0);fill-rule:nonzero;"/>
                <path id="Croix-suisse" serif:id="Croix suisse" d="M47.44,30.385L57.534,31.32L61.434,41.089L69.21,41.202L73.874,52.16L66.1,52.84L70.624,64.138L60.473,66.092L55.978,53.746L45.263,54.708L40.683,40.834L51.314,40.975L47.44,30.385Z" style="fill:white;fill-rule:nonzero;"/>
                <path id="Fond-courbe-droite" serif:id="Fond courbe droite" d="M86.351,59.961C86.598,59.888 90.641,58.675 92.466,57.966L92.471,57.964C96.408,56.482 99.62,54.75 102.189,52.877C104.508,51.162 106.277,49.312 107.491,47.404C107.492,47.402 107.494,47.4 107.495,47.398C108.637,45.655 109.291,43.86 109.51,42.035C109.51,42.031 109.51,42.027 109.511,42.023C109.755,40.313 109.696,38.887 109.235,37.171C108.766,35.548 107.995,33.925 106.979,32.329C105.978,30.798 104.727,29.296 103.255,27.794C101.831,26.367 100.183,24.969 98.311,23.6L98.307,23.596C96.54,22.275 94.605,21.012 92.586,19.833C90.647,18.707 88.568,17.61 86.433,16.597C84.35,15.609 82.155,14.679 79.931,13.777C77.708,12.903 75.427,12.086 73.092,11.325L73.09,11.325C70.781,10.562 68.387,9.858 65.937,9.208C63.486,8.561 60.95,7.94 58.386,7.402L58.383,7.402C55.79,6.838 53.143,6.33 50.411,5.906L50.408,5.906C47.618,5.454 44.772,5.059 41.84,4.749C41.837,4.749 41.834,4.748 41.83,4.748C41.135,4.66 40.497,4.573 39.86,4.428C39.221,4.283 38.639,4.136 38.116,3.961C38.113,3.96 38.11,3.959 38.107,3.958C37.597,3.778 37.139,3.552 36.781,3.344C36.53,3.206 36.148,2.92 35.915,2.687C35.76,2.531 35.663,2.379 35.628,2.28C35.557,2.08 35.55,1.912 35.587,1.761C35.626,1.601 35.714,1.446 35.898,1.298L35.9,1.297C36.068,1.163 36.454,0.93 36.955,0.811C37.3,0.728 38.049,0.632 38.597,0.632C39.125,0.632 39.711,0.662 40.357,0.75C47.072,1.543 53.447,2.622 59.398,3.927C65.238,5.177 70.908,6.711 76.237,8.415L76.24,8.416C81.658,10.177 86.934,12.194 91.813,14.411L91.815,14.412C97.015,16.802 102.016,19.506 106.477,22.58C111.497,25.979 115.575,29.608 118.626,33.35C122.169,37.707 124.407,42.326 124.982,47.057C125.677,52.647 123.975,58.665 119.29,64.11C113.674,70.649 103.704,76.634 88.566,80.77L88.564,80.771C87.036,81.182 85.362,81.274 83.689,81.097C83.686,81.097 83.683,81.097 83.681,81.096C81.996,80.892 80.496,80.57 78.932,79.946C69.266,76.088 67.952,64.682 76.236,62.515C79.75,61.596 86.042,60.038 86.351,59.961Z" style="fill:rgb(255,0,0);"/>
                <path id="Courbe-droite" serif:id="Courbe droite" d="M75.825,65.072C76.56,64.591 77.464,64.251 78.511,64.053C90.243,61.986 98.697,58.474 104.125,54.312C108.79,50.744 111.137,46.695 111.532,42.618C111.899,39.078 110.797,35.454 108.479,31.971C106.415,28.885 103.334,25.827 99.376,22.91C95.728,20.248 91.572,17.841 87.105,15.746C82.893,13.736 78.285,11.952 73.479,10.366C68.757,8.837 63.696,7.478 58.494,6.373C53.179,5.241 47.525,4.307 41.588,3.655C41.079,3.599 40.599,3.514 40.118,3.4C39.637,3.315 39.185,3.202 38.789,3.06C38.421,2.919 38.082,2.777 37.828,2.636C37.573,2.494 37.404,2.352 37.319,2.211C37.262,2.098 37.291,1.956 37.404,1.871C37.545,1.787 37.743,1.702 38.026,1.645C38.309,1.617 38.648,1.588 39.044,1.588C39.44,1.588 39.892,1.617 40.4,1.673C43.737,2.069 46.988,2.522 50.126,3.06C53.208,3.57 56.204,4.137 59.145,4.788C62.028,5.411 64.856,6.09 67.626,6.827C70.397,7.563 73.083,8.384 75.712,9.233C78.369,10.083 80.999,10.989 83.515,11.952C86.087,12.943 88.604,14.019 91.035,15.123C93.551,16.284 95.982,17.501 98.329,18.804C100.761,20.135 103.107,21.579 105.341,23.108C107.716,24.75 109.836,26.393 111.73,28.092C113.737,29.875 115.519,31.744 117.017,33.613C118.629,35.624 119.929,37.691 120.891,39.786C121.937,42.052 122.615,44.373 122.841,46.695C123.096,49.244 122.813,51.792 121.965,54.341C121.06,57.144 119.42,59.89 116.988,62.552C114.331,65.469 110.741,68.272 106.076,70.82C100.987,73.595 94.654,76.059 87.077,78.041C85.918,78.352 84.702,78.409 83.458,78.239C82.214,78.098 80.942,77.758 79.754,77.22C78.595,76.681 77.493,76.002 76.56,75.153C75.627,74.331 74.864,73.397 74.298,72.349C73.789,71.358 73.506,70.367 73.506,69.433C73.479,68.527 73.676,67.677 74.1,66.941C74.496,66.205 75.062,65.582 75.825,65.072Z" style="fill:white;"/>
                <path id="Fond-courbe-gauche" serif:id="Fond courbe gauche" d="M25.89,45.239C25.871,45.276 25.848,45.31 25.82,45.342C22.863,48.694 20.603,52.239 19.152,55.871L19.15,55.876C17.543,59.788 16.876,63.867 17.319,67.89C17.845,72.385 19.734,76.851 23.308,80.98C23.834,81.592 24.388,82.176 24.998,82.758C25.001,82.761 25.004,82.764 25.007,82.767C25.619,83.38 26.258,83.964 26.954,84.549C27.651,85.135 28.376,85.723 29.157,86.281L29.159,86.283C29.972,86.871 30.812,87.432 31.679,87.994C38.527,92.322 47.255,95.353 57.357,96.954C68.279,98.673 80.324,98.589 92.457,96.698C104.954,94.727 116.889,90.949 127.164,85.649C137.121,80.507 144.95,74.225 150,67.257C150.642,66.365 151.255,65.443 151.812,64.522C152.342,63.599 152.845,62.677 153.292,61.754C153.736,60.836 154.126,59.944 154.46,59.027C154.793,58.109 155.069,57.222 155.291,56.305C155.292,56.302 155.292,56.3 155.293,56.298C155.326,56.167 155.362,56.037 155.42,55.908C155.457,55.786 155.512,55.666 155.571,55.566C155.617,55.425 155.689,55.283 155.794,55.14C155.858,55.043 155.926,54.925 156.013,54.829C156.594,54.043 157.44,53.373 158.55,52.86C159.603,52.332 160.889,51.92 162.351,51.628C163.791,51.338 165.404,51.195 167.19,51.164C167.193,51.164 167.196,51.164 167.199,51.164C168.943,51.164 170.857,51.279 172.826,51.564C173.105,51.593 173.357,51.65 173.636,51.676C173.657,51.678 173.678,51.682 173.698,51.686C173.952,51.743 174.234,51.772 174.487,51.829C174.743,51.885 175.025,51.942 175.28,51.999C175.534,52.055 175.817,52.112 176.071,52.169C178.02,52.598 179.854,53.172 181.545,53.833L181.549,53.835C183.279,54.527 184.862,55.308 186.156,56.171C187.538,57.054 188.652,58.027 189.445,59.027C190.285,60.087 190.767,61.216 190.769,62.303C190.797,63.712 190.711,65.118 190.569,66.525C190.425,67.989 190.195,69.426 189.852,70.86C189.537,72.322 189.108,73.784 188.592,75.248C188.077,76.738 187.477,78.224 186.761,79.685C181.323,91.145 170.686,101.646 155.799,110.141C140.309,118.979 121.585,124.863 101.752,127.223C82.801,129.496 64.416,128.328 48.33,124.065C33.992,120.277 22.303,114.231 13.911,106.509C12.856,105.538 11.858,104.537 10.917,103.539C10.915,103.537 10.913,103.535 10.911,103.533C10.027,102.562 9.172,101.59 8.374,100.592C8.372,100.589 8.37,100.586 8.368,100.583C7.626,99.612 6.913,98.64 6.256,97.639C5.598,96.667 5.027,95.693 4.482,94.719L4.48,94.714C0.897,88.139 -0.363,81.36 0.124,74.876C0.553,69.172 2.354,63.61 5.158,58.394L5.159,58.392C7.696,53.738 11.059,49.283 15.135,45.114C17.583,42.606 20.315,40.183 23.331,37.875C23.34,37.868 23.349,37.862 23.358,37.856C26.141,36.007 28.179,34.221 30.06,33.267C31.895,32.337 33.555,32.168 34.759,32.398C35.655,32.569 36.315,32.968 36.671,33.44C36.892,33.732 36.954,34.068 36.851,34.456C36.746,34.848 36.431,35.327 35.913,35.881C34.192,37.721 30.099,40.672 25.89,45.239Z" style="fill:rgb(255,0,0);"/>
                <path id="Courbe-gauche" serif:id="Courbe gauche" d="M181.702,64.732C181.477,66.035 181.193,67.337 180.826,68.64C180.431,69.943 179.978,71.273 179.44,72.576C178.903,73.907 178.281,75.238 177.575,76.568C172.118,86.818 162.139,96.163 148.483,103.75C134.291,111.651 117.328,117.002 99.376,119.325C82.186,121.533 65.421,120.769 50.606,117.229C37.291,114.058 26.293,108.848 18.208,102.024C17.19,101.146 16.229,100.297 15.324,99.39C14.447,98.541 13.627,97.663 12.836,96.757C12.101,95.88 11.394,95.002 10.744,94.124C10.093,93.246 9.528,92.368 8.991,91.49C5.344,85.544 3.902,79.371 4.128,73.397C4.354,68.102 5.853,62.892 8.369,57.993C10.63,53.576 13.74,49.328 17.529,45.364C21.035,41.683 25.219,38.201 29.997,34.916C30.025,34.888 30.053,34.859 30.11,34.831C30.138,34.831 30.194,34.803 30.223,34.774C30.251,34.746 30.308,34.718 30.336,34.689C30.393,34.661 30.42,34.633 30.477,34.633C30.788,34.463 31.099,34.293 31.439,34.151C31.778,34.038 32.117,33.925 32.456,33.84C32.795,33.755 33.106,33.698 33.418,33.67C33.729,33.641 34.011,33.641 34.266,33.67C34.294,33.698 34.322,33.698 34.351,33.698C34.379,33.698 34.407,33.698 34.435,33.726C34.492,33.726 34.52,33.726 34.548,33.755C34.577,33.755 34.577,33.755 34.605,33.783C34.803,33.84 34.916,33.953 35.001,34.066C35.057,34.208 35.085,34.349 35.029,34.491C35.001,34.661 34.888,34.859 34.718,35.029C34.548,35.227 34.322,35.426 34.04,35.624C29.827,38.597 26.208,41.797 23.24,45.11C20.045,48.649 17.529,52.415 15.861,56.294C13.995,60.542 13.119,64.987 13.429,69.405C13.769,74.331 15.606,79.314 19.282,83.959C19.847,84.638 20.413,85.317 21.035,85.969C21.685,86.648 22.363,87.328 23.07,87.979C23.805,88.631 24.568,89.31 25.388,89.962C26.236,90.612 27.113,91.264 28.046,91.887C35.283,96.813 44.669,100.382 55.639,102.307C67.569,104.43 80.801,104.515 94.173,102.505C108.026,100.438 121.201,96.276 132.453,90.329C143.395,84.609 151.848,77.559 157.106,69.773C157.784,68.753 158.406,67.734 158.972,66.686C159.537,65.667 160.046,64.647 160.471,63.6C160.923,62.609 161.29,61.589 161.63,60.57C161.94,59.551 162.195,58.531 162.393,57.54C162.421,57.455 162.421,57.399 162.449,57.342C162.449,57.257 162.478,57.201 162.506,57.144C162.534,57.087 162.563,57.002 162.619,56.946C162.647,56.889 162.676,56.832 162.732,56.776C163.015,56.351 163.495,55.983 164.089,55.671C164.683,55.36 165.446,55.133 166.267,54.963C167.114,54.822 168.075,54.737 169.094,54.708C170.14,54.708 171.242,54.793 172.401,54.992C172.57,55.02 172.712,55.048 172.882,55.077C173.023,55.105 173.192,55.133 173.334,55.161C173.504,55.19 173.646,55.218 173.814,55.246C173.956,55.275 174.098,55.303 174.267,55.36C175.369,55.615 176.416,55.954 177.349,56.351C178.281,56.747 179.158,57.201 179.864,57.682C180.571,58.191 181.137,58.701 181.533,59.239C181.929,59.806 182.127,60.372 182.099,60.91C182.042,62.184 181.9,63.458 181.702,64.732Z" style="fill:white;"/>
            </g>
            <g id="Wordmark-red" serif:id="Wordmark red">
                <path d="M8.575,146.648C10.13,147.866 11.115,148.72 11.115,150.845C11.115,154.083 8.316,156 4.818,156C3.497,156 0.673,155.715 0,154.834L0.103,152.477C0.103,152.192 0.258,152.037 0.44,152.037C0.829,152.037 2.331,153.151 4.585,153.151C6.192,153.151 7.228,152.659 7.228,151.182C7.228,150.793 7.073,150.508 6.373,149.938L3.834,147.917C2.072,146.518 1.139,145.766 1.139,143.409C1.139,140.092 4.171,138.641 7.254,138.641C8.472,138.641 11.399,139.056 11.399,139.782L11.296,142.139C11.296,142.321 11.167,142.502 10.959,142.502C10.467,142.502 9.689,141.362 7.357,141.362C5.984,141.362 5.026,141.932 5.026,143.02C5.026,143.797 5.544,144.238 6.114,144.704L8.575,146.648Z" style="fill:rgb(255,0,0);fill-rule:nonzero;"/>
                <path d="M16.244,155.742C15.519,155.742 15.415,155.353 15.208,154.394L12.643,142.087C12.643,141.88 12.85,141.62 13.057,141.62L16.218,141.62C16.399,141.62 16.607,141.75 16.659,141.957L17.41,146.88C17.721,148.772 17.928,151.803 17.954,152.477L18.006,152.477C18.084,152.063 18.472,150.482 18.939,148.954L20.934,142.243C21.037,141.932 21.296,141.62 21.582,141.62L25.131,141.62C25.468,141.62 25.727,141.932 25.753,142.243L26.375,147.606C26.504,148.746 26.66,150.845 26.815,152.477L26.867,152.477C27.152,151.286 27.385,150.3 28.292,147.451L30.028,142.036C30.106,141.802 30.365,141.62 30.598,141.62L33.293,141.62C33.552,141.62 33.655,141.725 33.655,141.984L28.888,154.602C28.629,155.275 28.499,155.742 27.774,155.742L24.924,155.742C24.276,155.742 24.017,155.56 23.887,154.29L23.395,149.264C23.214,147.58 23.11,145.145 23.11,144.471L23.058,144.471C23.006,144.937 22.695,146.207 22.255,147.787L20.338,154.342C20.079,155.12 19.923,155.742 19.068,155.742L16.244,155.742Z" style="fill:rgb(255,0,0);fill-rule:nonzero;"/>
                <path d="M36.245,139.833C35.364,139.833 35.002,139.47 35.053,138.823L35.079,137.812C35.131,136.983 35.572,136.699 36.427,136.699L38.189,136.699C39.018,136.699 39.406,136.983 39.38,137.787L39.329,138.823C39.276,139.652 38.707,139.833 37.852,139.833L36.245,139.833ZM35.235,142.036C35.235,141.699 35.442,141.62 35.753,141.62L38.473,141.62C38.81,141.62 38.862,141.725 38.862,142.036L38.137,155.249C38.137,155.56 38.007,155.742 37.748,155.742L35.027,155.742C34.535,155.742 34.509,155.535 34.509,155.249L35.235,142.036Z" style="fill:rgb(255,0,0);fill-rule:nonzero;"/>
                <path d="M47.619,147.761C48.811,148.513 49.718,149.446 49.718,151.441C49.718,154.342 47.49,156 44.329,156C42.282,156 40.313,155.612 40.313,154.654L40.417,152.452C40.417,152.244 40.546,152.037 40.779,152.037C41.116,152.037 42.541,153.281 44.562,153.281C45.728,153.281 46.48,152.917 46.48,152.244C46.48,151.7 46.091,151.466 45.546,151.078L43.189,149.627C41.66,148.746 41.065,147.709 41.065,145.948C41.065,143.15 43.059,141.362 46.117,141.362C47.619,141.362 49.874,141.802 49.874,142.683L49.77,144.653C49.77,144.86 49.666,145.067 49.459,145.067C48.941,145.067 47.904,144.082 46.35,144.082C45.054,144.082 44.303,144.419 44.303,145.197C44.303,145.559 44.562,145.87 44.899,146.078L47.619,147.761Z" style="fill:rgb(255,0,0);fill-rule:nonzero;"/>
                <path d="M58.164,147.761C59.356,148.513 60.263,149.446 60.263,151.441C60.263,154.342 58.035,156 54.874,156C52.827,156 50.858,155.612 50.858,154.654L50.961,152.452C50.961,152.244 51.091,152.037 51.324,152.037C51.661,152.037 53.086,153.281 55.107,153.281C56.273,153.281 57.024,152.917 57.024,152.244C57.024,151.7 56.636,151.466 56.091,151.078L53.734,149.627C52.205,148.746 51.609,147.709 51.609,145.948C51.609,143.15 53.604,141.362 56.662,141.362C58.164,141.362 60.419,141.802 60.419,142.683L60.315,144.653C60.315,144.86 60.211,145.067 60.004,145.067C59.486,145.067 58.449,144.082 56.895,144.082C55.599,144.082 54.848,144.419 54.848,145.197C54.848,145.559 55.107,145.87 55.444,146.078L58.164,147.761Z" style="fill:rgb(255,0,0);fill-rule:nonzero;"/>
                <path d="M73.658,141.62L68.942,141.62C68.502,141.62 68.476,141.413 68.476,141.233L68.58,139.393C68.58,139.056 68.761,138.901 69.072,138.901L82.312,138.901C82.778,138.901 82.804,139.108 82.804,139.393L82.7,141.103C82.7,141.44 82.519,141.62 82.156,141.62L77.285,141.62L76.56,155.249C76.56,155.56 76.404,155.742 76.093,155.742L73.398,155.742C72.984,155.742 72.932,155.535 72.932,155.249L73.658,141.62Z" style="fill:rgb(255,0,0);fill-rule:nonzero;"/>
                <path d="M90.188,154.627C90.188,155.483 87.752,156 85.809,156C82.104,156 80.316,153.954 80.316,150.171C80.316,144.393 83.632,141.362 87.493,141.362C88.944,141.362 90.809,141.699 90.809,142.502L90.706,144.496C90.706,144.653 90.576,144.782 90.42,144.782C90.006,144.782 89.358,144.082 87.881,144.082C85.835,144.082 84.203,146.078 84.203,149.576C84.203,151.544 84.954,153.151 86.845,153.151C88.503,153.151 89.514,152.322 90.006,152.322C90.188,152.322 90.291,152.477 90.291,152.632L90.188,154.627Z" style="fill:rgb(255,0,0);fill-rule:nonzero;"/>
                <path d="M95.757,155.249C95.757,155.56 95.628,155.742 95.369,155.742L92.648,155.742C92.156,155.742 92.13,155.535 92.13,155.249L93.115,137.113C93.115,136.776 93.322,136.699 93.633,136.699L96.353,136.699C96.69,136.699 96.743,136.802 96.743,137.113L96.172,147.088L96.224,147.14C96.561,145.999 98.038,141.362 101.898,141.362C103.868,141.362 104.619,142.606 104.619,144.86L104.101,155.249C104.101,155.56 103.92,155.742 103.531,155.742L100.681,155.742C100.215,155.742 100.215,155.483 100.215,155.249L100.655,146.751C100.655,146.026 100.655,145.507 99.981,145.507C98.815,145.507 95.861,150.663 95.861,153.332L95.757,155.249Z" style="fill:rgb(255,0,0);fill-rule:nonzero;"/>
                <path d="M112.21,153.281C114.023,153.281 114.905,151.311 114.905,147.891C114.905,146.051 114.646,144.082 112.806,144.082C110.293,144.082 110.086,148.124 110.086,149.731C110.086,151.493 110.423,153.281 112.21,153.281ZM106.199,149.679C106.199,143.901 109.412,141.362 113.014,141.362C116.537,141.362 118.791,143.538 118.791,147.813C118.791,153.358 115.553,156 111.848,156C108.428,156 106.199,153.825 106.199,149.679Z" style="fill:rgb(255,0,0);fill-rule:nonzero;"/>
                <path d="M128.843,150.327L128.792,150.275C128.298,151.493 126.408,156 122.91,156C120.76,156 120.396,154.654 120.396,152.944L120.941,142.114C120.941,141.802 121.122,141.62 121.511,141.62L124.361,141.62C124.827,141.62 124.827,141.88 124.827,142.114L124.206,150.637C124.206,151.259 124.206,151.855 124.905,151.855C126.2,151.855 129.154,146.492 129.154,144.056L129.284,142.036C129.284,141.699 129.491,141.62 129.802,141.62L132.522,141.62C132.859,141.62 132.911,141.725 132.911,142.036L132.186,155.249C132.186,155.56 132.056,155.742 131.797,155.742L129.076,155.742C128.584,155.742 128.559,155.535 128.559,155.249L128.843,150.327Z" style="fill:rgb(255,0,0);fill-rule:nonzero;"/>
                <path d="M139.699,148.358C139.674,148.28 139.622,148.176 139.622,148.073C139.622,147.943 139.674,147.839 139.777,147.736L144.855,141.906C144.985,141.725 145.218,141.62 145.426,141.62L148.664,141.62C148.794,141.62 148.975,141.647 148.975,141.829C148.975,141.984 148.871,142.139 148.768,142.269L143.741,147.839L147.861,155.016C147.913,155.146 148.017,155.275 148.017,155.405C148.017,155.612 147.913,155.742 147.576,155.742L143.975,155.742C143.768,155.742 143.508,155.663 143.431,155.483L139.699,148.358ZM136.306,137.113C136.306,136.776 136.513,136.699 136.823,136.699L139.544,136.699C139.881,136.699 139.933,136.802 139.933,137.113L138.948,155.249C138.948,155.56 138.818,155.742 138.56,155.742L135.839,155.742C135.347,155.742 135.321,155.535 135.321,155.249L136.306,137.113Z" style="fill:rgb(255,0,0);fill-rule:nonzero;"/>
                <path d="M154.908,153.41C158.639,153.41 159.183,149.239 159.183,146.829C159.183,145.974 159.054,144.99 158.198,144.99C156.255,144.99 153.431,152.322 153.224,153.099C153.457,153.203 153.976,153.41 154.908,153.41ZM150.659,137.113C150.659,136.802 150.866,136.699 151.177,136.699L153.846,136.699C154.208,136.699 154.286,136.802 154.286,137.113L153.768,146.648L153.819,146.7C154.26,145.662 155.789,141.362 159.416,141.362C162.267,141.362 162.811,144.082 162.811,146.207C162.811,151.7 159.883,156 155.634,156C153.639,156 152.343,155.171 151.825,154.834L150.399,155.845C150.296,155.949 150.167,156 150.037,156C149.7,156 149.7,155.638 149.7,155.353L150.659,137.113Z" style="fill:rgb(255,0,0);fill-rule:nonzero;"/>
                <path d="M168.535,152.373C170.245,152.373 173.303,145.689 173.406,144.289C173.147,144.186 172.707,143.953 171.826,143.953C168.121,143.953 167.577,148.15 167.577,150.612C167.577,151.441 167.81,152.373 168.535,152.373ZM172.732,150.845L172.681,150.793C172.396,151.881 170.712,156 167.162,156C164.908,156 163.949,154.005 163.949,151.234C163.949,145.17 167.085,141.362 170.764,141.362C172.292,141.362 173.303,141.957 173.51,142.061C173.536,141.854 173.665,141.62 173.847,141.62L176.567,141.62C177.034,141.62 177.111,141.802 177.111,142.139L176.412,155.249C176.412,155.586 176.257,155.742 175.842,155.742L172.992,155.742C172.525,155.742 172.5,155.508 172.5,155.249L172.732,150.845Z" style="fill:rgb(255,0,0);fill-rule:nonzero;"/>
                <path d="M180.454,137.113C180.454,136.776 180.661,136.699 180.972,136.699L183.692,136.699C184.029,136.699 184.081,136.802 184.081,137.113L183.097,155.249C183.097,155.56 182.967,155.742 182.708,155.742L179.987,155.742C179.495,155.742 179.47,155.535 179.47,155.249L180.454,137.113Z" style="fill:rgb(255,0,0);fill-rule:nonzero;"/>
                <path d="M187.164,137.113C187.164,136.776 187.371,136.699 187.682,136.699L190.402,136.699C190.739,136.699 190.791,136.802 190.791,137.113L189.807,155.249C189.807,155.56 189.677,155.742 189.418,155.742L186.697,155.742C186.205,155.742 186.179,155.535 186.179,155.249L187.164,137.113Z" style="fill:rgb(255,0,0);fill-rule:nonzero;"/>
            </g>
        </g>
    </g>
</svg>
