<svg xmlns="http://www.w3.org/2000/svg" version="1.1" xmlns:xlink="http://www.w3.org/1999/xlink" xmlns:svgjs="http://svgjs.dev/svgjs" width="1063" height="1063"><svg xmlns="http://www.w3.org/2000/svg" xml:space="preserve" fill-rule="evenodd" stroke-linejoin="round" stroke-miterlimit="2" clip-rule="evenodd" viewBox="0 0 1063 1063"><path fill="red" fill-rule="nonzero" d="M8.288 765.006c-13.271-16.925-10.28-41.613 6.65-54.875l155.766-122.105c16.913-13.266 41.605-10.275 54.859 6.638l.02.008c13.255 16.913 10.263 41.6-6.645 54.867L63.146 771.647c-16.908 13.267-41.592 10.275-54.858-6.641Z"></path><path fill="#00567c" fill-rule="nonzero" d="M8.288 965.497c-13.271-16.92-10.28-41.612 6.65-54.875l155.766-122.104c16.913-13.267 41.605-10.275 54.859 6.642l.02.008c13.255 16.913 10.263 41.6-6.645 54.867L63.146 972.143c-16.908 13.263-41.592 10.275-54.858-6.646Z"></path><path fill="red" fill-rule="nonzero" d="M268.321 965.48c-13.25-16.92-10.262-41.608 6.646-54.874l102.942-80.68c16.916-13.262 41.591-10.275 54.858 6.646h.008c13.255 16.913 10.267 41.596-6.641 54.863l-102.955 80.692c-16.908 13.258-41.579 10.27-54.858-6.646Z"></path><path fill="#00567c" fill-rule="nonzero" d="m610.088 633.018-4.38-2.875c-21.883-14.496-42.395-31.992-60.45-51.688l-3.003-3.3c-52.042-57.925-81.088-131.658-83.15-209.391-62.484 48.82-138.367 108.141-179.846 140.654-16.925 13.258-19.917 37.946-6.646 54.867 11.654 14.883 32.183 18.987 48.466 10.725 33.013-27.8 45.58-24.663 64.771-.18 13.259 16.913 10.28 41.605-6.654 54.867-30.937 24.267-61.392 48.467-92.454 72.821-16.913 13.263-19.904 37.95-6.646 54.867 13.254 16.916 37.946 19.908 54.846 6.65l97.833-76.667 35.471-27.825 20.704-16.23c16.913-13.262 41.605-10.274 54.875 6.647 13.267 16.908 10.275 41.6-6.645 54.862l-1.571 1.246-19.134 14.988c-24.245 19.004-73.216 46.283-43.725 83.925 13.267 16.916 37.95 19.908 54.884 6.645l37.054-29.058 19.137-14.996 117.146-91.262c-32.037-8.75-62.754-22.221-90.883-40.292ZM786.896 556.297l82.621 12.338 61.071-63.584-48.304-60.875-91.3 36.759-4.088 75.362ZM684.38 289.76l-13.554 97.262c15.204 12.462 67.545 54.204 110.42 75.108l95.913-38.62c14.058-42.596 17.417-107.95 18.092-126.53l-82.655-64.941-128.216 57.72ZM916.326 297.926c-.688 19.77-4.071 85.888-18.896 131.43l49.808 62.758c21.438-12.242 82.221-48.384 107.909-78.159a275.294 275.294 0 0 0 5.675-42.512c.237-4.504.354-8.988.387-13.446-20.37-33.5-67.533-81.746-83.987-98.146l-60.896 38.075Z"></path><path fill="red" fill-rule="nonzero" d="m675.992 270.422 129.167-58.154 18-69.525c-7.55-9.334-35.908-37.621-108.725-50.3-24.167 6.67-47.08 16.525-68.175 29.216l-30.65 104.955 60.383 43.808ZM593.838 225.96l24.912-85.3c-49.787 38.887-86.075 94.624-99.708 159.183l17.813.966 56.983-74.85ZM965.526 242.305l-33.792-80.825-89.2-9.454-16.513 63.75 80.621 63.342 58.884-36.813ZM840.459 130.61l94.038 9.966 7.929-9.7c-40.171-27.73-88.204-45.092-140.417-47.92-12.375-.676-24.592-.426-36.62.524 46.703 15.846 67.682 37.57 75.07 47.13ZM533.938 321.764l-18.392-1c-.904 6.929-1.65 13.912-2.029 21.004-3.517 64.779 15.93 125.567 51.15 174.533l-1.82-100.108-28.91-94.43ZM959.292 143.56l-8.079 9.87 36.392 87.021c7.93 7.758 43.712 43.25 70.854 77.454-9.92-69.712-46.346-131.55-99.167-174.346ZM663.434 287.355l-57.884-41.991-52.033 68.358 26.938 87.983 69.641-18.679 13.338-95.67Z"></path><path fill="#00567c" fill-rule="nonzero" d="m885.272 582.668 8.283 26.437c68.487-28.983 123.246-85.129 149.93-155.55-36 28.959-83.497 55.675-92.422 60.613l-65.791 68.5ZM776.834 576.11c-11.138 3.787-58.492 19.1-111.908 25.716 32.537 16.275 68.825 26.334 107.404 28.425 35.454 1.921 69.679-3.091 101.475-13.729l-8.538-27.208-88.433-13.204ZM769.913 480.047c-45.283-22.57-97.712-64.558-112.883-77.058l-72.988 19.579 2.2 120.112c14.13 15.267 29.963 28.975 47.254 40.738 55.925-2.675 113.25-19.73 132.225-25.85l4.192-77.52Z"></path></svg><style>@media (prefers-color-scheme: light) { :root { filter: none; } }
@media (prefers-color-scheme: dark) { :root { filter: none; } }
</style></svg>